
CASCADE Topology V1, (c) Matra-Datavision
Locations 13
1
1.000000000000000 0.000000000000000 0.000000000000000 0.000000000000000 
0.000000000000000 1.000000000000000 0.000000000000000 0.000000000000000 
0.000000000000000 0.000000000000000 1.000000000000000 0.000000000000000 
1
1.000000000000000 0.000000000000000 0.000000000000000 0.000000000000000 
0.000000000000000 0.000000000000000 -1.000000000000000 0.000000000000000 
0.000000000000000 1.000000000000000 0.000000000000000 0.000000000000000 
1
1.000000000000000 0.000000000000000 0.000000000000000 0.000000000000000 
0.000000000000000 -0.000000000000000 -1.000000000000000 0.000000000000000 
0.000000000000000 1.000000000000000 -0.000000000000000 0.000000000000000 
2  1 1 2 1 3 -1 0
1
1.000000000000000 0.000000000000000 0.000000000000000 0.000000000000000 
0.000000000000000 1.000000000000000 0.000000000000000 0.000000000000018 
0.000000000000000 0.000000000000000 1.000000000000000 40.000000000000000 
2  1 1 2 1 3 -1 5 1 0
1
1.000000000000000 0.000000000000000 0.000000000000000 0.000000000000000 
0.000000000000000 0.000000000000000 -1.000000000000000 0.000000000000000 
0.000000000000000 1.000000000000000 0.000000000000000 0.000000000000000 
1
1.000000000000000 0.000000000000000 0.000000000000000 0.000000000000000 
0.000000000000000 1.000000000000000 0.000000000000000 0.000000000000000 
0.000000000000000 0.000000000000000 1.000000000000000 0.000000000000000 
2  7 -1 8 -1 0
2  2 -1 1 -1 0
2  3 -1 0
2  1 1 2 1 0
2  3 -1 5 1 0
Curve2ds 8
1 86.50000000000000000 -40.00000000000000000 0.00000000000000000 1.00000000000000000 
1 86.50000000000000000 -40.00000000000000000 0.00000000000000000 1.00000000000000000 
1 86.50000000000000000 40.00000000000000000 -1.00000000000000000 0.00000000000000000 
1 86.50000000000000000 40.00000000000000000 -1.00000000000000000 0.00000000000000000 
1 -86.50000000000000000 40.00000000000000000 0.00000000000000000 -1.00000000000000000 
1 -86.50000000000000000 40.00000000000000000 0.00000000000000000 -1.00000000000000000 
1 -86.50000000000000000 -40.00000000000000000 1.00000000000000000 0.00000000000000000 
1 -86.50000000000000000 -40.00000000000000000 1.00000000000000000 0.00000000000000000 
Curves 8
1 -40.00000000000000000 86.50000000000000000 -0.00000000000003841 0.00000000000000000 0.00000000000000044 1.00000000000000000 
1 40.00000000000000000 86.50000000000000000 -0.00000000000003841 0.00000000000000000 0.00000000000000044 1.00000000000000000 
1 -40.00000000000000000 86.50000000000000000 0.00000000000000000 1.00000000000000000 0.00000000000000000 0.00000000000000000 
1 40.00000000000000000 -86.50000000000000000 0.00000000000003841 0.00000000000000000 0.00000000000000044 1.00000000000000000 
1 40.00000000000000000 86.50000000000000000 0.00000000000000000 0.00000000000000000 -1.00000000000000000 0.00000000000000000 
1 -40.00000000000000000 -86.50000000000000000 0.00000000000003841 0.00000000000000000 0.00000000000000044 1.00000000000000000 
1 40.00000000000000000 -86.50000000000000000 0.00000000000000000 -1.00000000000000000 0.00000000000000000 0.00000000000000000 
1 -40.00000000000000000 -86.50000000000000000 0.00000000000000000 0.00000000000000000 1.00000000000000000 0.00000000000000000 
Polygon3D 0
PolygonOnTriangulations 0
Surfaces 6
1 -40.00000000000000000 86.50000000000000000 -0.00000000000003841 0.00000000000000000 1.00000000000000000 -0.00000000000000044 1.00000000000000000 0.00000000000000000 0.00000000000000000 0.00000000000000000 -0.00000000000000044 -1.00000000000000000 
1 0.00000000000000000 0.00000000000000000 0.00000000000000000 0.00000000000000000 1.00000000000000000 -0.00000000000000022 0.00000000000000000 0.00000000000000022 1.00000000000000000 1.00000000000000000 -0.00000000000000000 0.00000000000000000 
1 0.00000000000000000 0.00000000000000000 0.00000000000000000 0.00000000000000000 1.00000000000000000 -0.00000000000000022 0.00000000000000000 0.00000000000000022 1.00000000000000000 1.00000000000000000 -0.00000000000000000 0.00000000000000000 
1 40.00000000000000000 86.50000000000000000 -0.00000000000003841 1.00000000000000000 0.00000000000000000 -0.00000000000000000 0.00000000000000000 -1.00000000000000000 0.00000000000000044 0.00000000000000000 -0.00000000000000044 -1.00000000000000000 
1 40.00000000000000000 -86.50000000000000000 0.00000000000003841 0.00000000000000000 -1.00000000000000000 0.00000000000000044 -1.00000000000000000 0.00000000000000000 0.00000000000000000 -0.00000000000000000 -0.00000000000000044 -1.00000000000000000 
1 -40.00000000000000000 -86.50000000000000000 0.00000000000003841 -1.00000000000000000 0.00000000000000000 0.00000000000000000 0.00000000000000000 1.00000000000000000 -0.00000000000000044 -0.00000000000000000 -0.00000000000000044 -1.00000000000000000 
Triangulations 0

TShapes 24
Ve
0.000000100000000
-40.000000000000000 86.500000000000000 0.000000000000000
0 0

0101101
*
Ed
 0.000000100000000 1 1 0
1  1 0 0.000000000000000 40.000000000000000
0

0101000
+24 4 -24 6 *
Ve
0.000000100000000
40.000000000000000 86.500000000000000 0.000000000000000
0 0

0101101
*
Ed
 0.000000100000000 1 1 0
1  2 0 0.000000000000000 40.000000000000000
0

0101000
+22 4 -22 6 *
Ed
 0.000000100000000 1 1 0
1  3 0 0.000000000000000 80.000000000000000
2  1 2 9 0.000000000000000 80.000000000000000
2  2 3 10 0.000000000000000 80.000000000000000
0

0101000
+24 0 -22 0 *
Wi

0101100
+23 0 -21 0 -20 4 +20 6 *
Fa
0  0.000000100000000 1 0

0111000
+19 0 *
Ve
0.000000100000000
40.000000000000000 -86.500000000000000 0.000000000000000
0 0

0101101
*
Ed
 0.000000100000000 1 1 0
1  4 0 0.000000000000000 40.000000000000000
0

0101000
+17 4 -17 6 *
Ed
 0.000000100000000 1 1 0
1  5 0 0.000000000000000 173.000000000000000
2  3 2 9 0.000000000000000 173.000000000000000
2  4 3 10 0.000000000000000 173.000000000000000
0

0101000
+22 0 -17 0 *
Wi

0101100
+21 0 -16 0 -15 4 +15 6 *
Fa
0  0.000000100000000 4 0

0111000
+14 0 *
Ve
0.000000100000000
-40.000000000000000 -86.500000000000000 0.000000000000000
0 0

0101101
*
Ed
 0.000000100000000 1 1 0
1  6 0 0.000000000000000 40.000000000000000
0

0101000
+12 4 -12 6 *
Ed
 0.000000100000000 1 1 0
1  7 0 0.000000000000000 80.000000000000000
2  5 2 9 0.000000000000000 80.000000000000000
2  6 3 10 0.000000000000000 80.000000000000000
0

0101000
+17 0 -12 0 *
Wi

0101100
+16 0 -11 0 -10 4 +10 6 *
Fa
0  0.000000100000000 5 0

0111000
+9 0 *
Ed
 0.000000100000000 1 1 0
1  8 0 0.000000000000000 173.000000000000000
2  7 2 9 0.000000000000000 173.000000000000000
2  8 3 10 0.000000000000000 173.000000000000000
0

0101000
+12 0 -24 0 *
Wi

0101100
+11 0 -23 0 -7 4 +7 6 *
Fa
0  0.000000100000000 6 0

0111000
+6 0 *
Wi

0101100
+20 0 +15 0 +10 0 +7 0 *
Fa
0  0.000000100000000 3 0

0111000
+4 12 *
Sh

0101100
+18 0 +13 0 +8 0 +5 0 +3 11 -3 13 *
So

1100000
+2 0 *

+1 0 