
CASCADE Topology V1, (c) Matra-Datavision
Locations 32
1
1.000000000000000 0.000000000000000 0.000000000000000 0.000000000000000 
0.000000000000000 1.000000000000000 0.000000000000000 0.000000000000000 
0.000000000000000 0.000000000000000 1.000000000000000 0.000000000000000 
1
1.000000000000000 0.000000000000000 0.000000000000000 0.000000000000000 
0.000000000000000 0.000000000000000 -1.000000000000000 -40.000000000000007 
0.000000000000000 1.000000000000000 0.000000000000000 0.000000000000009 
1
1.000000000000000 0.000000000000000 0.000000000000000 0.000000000000000 
0.000000000000000 -0.000000000000000 -1.000000000000000 0.000000000000000 
0.000000000000000 1.000000000000000 -0.000000000000000 0.000000000000000 
2  1 1 2 1 3 -1 0
1
1.000000000000000 0.000000000000000 0.000000000000000 0.000000000000000 
0.000000000000000 1.000000000000000 0.000000000000000 -0.000000000000016 
0.000000000000000 0.000000000000000 1.000000000000000 -35.000000000000000 
2  1 1 2 1 3 -1 5 1 0
1
1.000000000000000 0.000000000000000 0.000000000000000 0.000000000000000 
0.000000000000000 -0.000000000000000 -1.000000000000000 0.000000000000000 
0.000000000000000 1.000000000000000 -0.000000000000000 0.000000000000000 
1
1.000000000000000 0.000000000000000 0.000000000000000 0.000000000000000 
0.000000000000000 0.000000000000000 -1.000000000000000 -40.000000000000007 
0.000000000000000 1.000000000000000 0.000000000000000 0.000000000000009 
1
1.000000000000000 0.000000000000000 0.000000000000000 0.000000000000000 
0.000000000000000 1.000000000000000 0.000000000000000 0.000000000000000 
0.000000000000000 0.000000000000000 1.000000000000000 0.000000000000000 
2  7 1 8 -1 9 -1 0
1
1.000000000000000 0.000000000000000 0.000000000000000 0.000000000000000 
0.000000000000000 1.000000000000000 0.000000000000000 -0.000000000000013 
0.000000000000000 0.000000000000000 1.000000000000000 -30.000000000000000 
2  11 -1 7 1 8 -1 9 -1 0
2  8 -1 9 -1 0
1
1.000000000000000 0.000000000000000 0.000000000000000 0.000000000000000 
0.000000000000000 -0.000000000000000 -1.000000000000000 0.000000000000000 
0.000000000000000 1.000000000000000 -0.000000000000000 0.000000000000000 
1
1.000000000000000 0.000000000000000 0.000000000000000 0.000000000000000 
0.000000000000000 1.000000000000000 0.000000000000000 0.000000000000018 
0.000000000000000 0.000000000000000 1.000000000000000 40.000000000000000 
1
1.000000000000000 0.000000000000000 0.000000000000000 0.000000000000000 
0.000000000000000 -0.000000000000000 -1.000000000000000 0.000000000000000 
0.000000000000000 1.000000000000000 -0.000000000000000 0.000000000000000 
2  14 -1 15 1 16 1 8 -1 9 -1 0
1
1.000000000000000 0.000000000000000 0.000000000000000 0.000000000000000 
0.000000000000000 -0.000000000000000 -1.000000000000000 0.000000000000000 
0.000000000000000 1.000000000000000 -0.000000000000000 0.000000000000000 
1
1.000000000000000 0.000000000000000 0.000000000000000 0.000000000000000 
0.000000000000000 0.000000000000000 -1.000000000000000 -40.000000000000007 
0.000000000000000 1.000000000000000 0.000000000000000 0.000000000000009 
1
1.000000000000000 0.000000000000000 0.000000000000000 0.000000000000000 
0.000000000000000 1.000000000000000 0.000000000000000 0.000000000000000 
0.000000000000000 0.000000000000000 1.000000000000000 0.000000000000000 
2  18 1 19 -1 20 -1 0
1
1.000000000000000 0.000000000000000 0.000000000000000 0.000000000000000 
0.000000000000000 1.000000000000000 0.000000000000000 -0.000000000000016 
0.000000000000000 0.000000000000000 1.000000000000000 -35.000000000000000 
2  22 -1 18 1 19 -1 20 -1 0
2  19 -1 20 -1 0
2  14 -1 15 1 16 1 19 -1 20 -1 0
2  3 1 2 -1 1 -1 0
2  5 -1 3 1 2 -1 1 -1 0
2  2 -1 1 -1 0
2  14 -1 15 1 16 1 2 -1 1 -1 0
2  3 -1 0
2  1 1 2 1 0
2  3 -1 5 1 0
Curve2ds 56
1 0.00000000000000000 0.00000000000000000 0.00000000000000000 -1.00000000000000000 
1 165.00000000000000000 0.00000000000000222 0.00000000000000000 -1.00000000000000000 
1 72.00000000000000000 0.00000000000000000 0.00000000000000000 -1.00000000000000000 
1 0.00000000000000000 0.00000000000000000 0.00000000000000000 -1.00000000000000000 
1 0.00000000000000000 0.00000000000000000 1.00000000000000000 0.00000000000000000 
1 0.00000000000000000 -30.00000000000000000 1.00000000000000000 0.00000000000000000 
1 82.50000000000000000 -36.00000000000000000 0.00000000000000000 1.00000000000000000 
1 82.49999999999998579 -35.99999999999999289 0.00000000000000000 1.00000000000000000 
1 0.00000000000000000 0.00000000000000000 1.00000000000000000 0.00000000000000000 
1 0.00000000000000000 -35.00000000000000000 1.00000000000000000 0.00000000000000000 
1 82.50000000000000000 -36.00000000000000000 0.00000000000000000 1.00000000000000000 
1 82.49999999999998579 -35.99999999999999289 0.00000000000000000 1.00000000000000000 
1 0.00000000000000000 0.00000000000000000 1.00000000000000000 0.00000000000000000 
1 0.00000000000000000 -35.00000000000000000 1.00000000000000000 0.00000000000000000 
1 82.50000000000000000 -36.00000000000000000 0.00000000000000000 1.00000000000000000 
1 82.49999999999998579 -35.99999999999999289 0.00000000000000000 1.00000000000000000 
1 165.00000000000000000 -0.00000000000000222 0.00000000000000000 -1.00000000000000000 
1 0.00000000000000000 0.00000000000000000 -0.00000000000000000 -1.00000000000000000 
1 0.00000000000000000 0.00000000000000000 1.00000000000000000 0.00000000000000000 
1 0.00000000000000089 -30.00000000000000000 1.00000000000000000 0.00000000000000000 
1 82.50000000000000000 36.00000000000000000 -1.00000000000000000 0.00000000000000000 
1 82.49999999999998579 35.99999999999999289 -1.00000000000000000 0.00000000000000000 
1 0.00000000000000000 0.00000000000000000 1.00000000000000000 0.00000000000000000 
1 -0.00000000000000133 -35.00000000000000000 1.00000000000000000 0.00000000000000000 
1 82.50000000000000000 36.00000000000000000 -1.00000000000000000 0.00000000000000000 
1 82.49999999999998579 35.99999999999999289 -1.00000000000000000 0.00000000000000000 
1 0.00000000000000000 0.00000000000000000 1.00000000000000000 0.00000000000000000 
1 -0.00000000000000133 -35.00000000000000000 1.00000000000000000 0.00000000000000000 
1 82.50000000000000000 36.00000000000000000 -1.00000000000000000 0.00000000000000000 
1 82.49999999999998579 35.99999999999999289 -1.00000000000000000 0.00000000000000000 
1 72.00000000000000000 0.00000000000000000 -0.00000000000000000 -1.00000000000000000 
1 0.00000000000000000 0.00000000000000000 0.00000000000000000 -1.00000000000000000 
1 0.00000000000000000 0.00000000000000000 1.00000000000000000 0.00000000000000000 
1 -0.00000000000000000 -30.00000000000000000 1.00000000000000000 0.00000000000000000 
1 -82.50000000000000000 36.00000000000000000 0.00000000000000000 -1.00000000000000000 
1 -82.49999999999998579 35.99999999999999289 0.00000000000000000 -1.00000000000000000 
1 0.00000000000000000 0.00000000000000000 1.00000000000000000 0.00000000000000000 
1 -0.00000000000000000 -35.00000000000000000 1.00000000000000000 0.00000000000000000 
1 -82.50000000000000000 36.00000000000000000 0.00000000000000000 -1.00000000000000000 
1 -82.49999999999998579 35.99999999999999289 0.00000000000000000 -1.00000000000000000 
1 0.00000000000000000 0.00000000000000000 1.00000000000000000 0.00000000000000000 
1 -0.00000000000000000 -35.00000000000000000 1.00000000000000000 0.00000000000000000 
1 -82.50000000000000000 36.00000000000000000 0.00000000000000000 -1.00000000000000000 
1 -82.49999999999998579 35.99999999999999289 0.00000000000000000 -1.00000000000000000 
1 0.00000000000000000 0.00000000000000000 1.00000000000000000 0.00000000000000000 
1 -0.00000000000000089 -30.00000000000000000 1.00000000000000000 0.00000000000000000 
1 -82.50000000000000000 -36.00000000000000000 1.00000000000000000 0.00000000000000000 
1 -82.49999999999998579 -35.99999999999999289 1.00000000000000000 0.00000000000000000 
1 0.00000000000000000 0.00000000000000000 1.00000000000000000 0.00000000000000000 
1 0.00000000000000133 -35.00000000000000000 1.00000000000000000 0.00000000000000000 
1 -82.50000000000000000 -36.00000000000000000 1.00000000000000000 0.00000000000000000 
1 -82.49999999999998579 -35.99999999999999289 1.00000000000000000 0.00000000000000000 
1 0.00000000000000000 0.00000000000000000 1.00000000000000000 0.00000000000000000 
1 0.00000000000000133 -35.00000000000000000 1.00000000000000000 0.00000000000000000 
1 -82.50000000000000000 -36.00000000000000000 1.00000000000000000 0.00000000000000000 
1 -82.49999999999998579 -35.99999999999999289 1.00000000000000000 0.00000000000000000 
Curves 8
1 -36.00000000000000000 82.50000000000001421 39.99999999999997158 0.00000000000000000 -0.00000000000000044 -1.00000000000000000 
1 36.00000000000000000 82.50000000000001421 39.99999999999997158 0.00000000000000000 -0.00000000000000044 -1.00000000000000000 
1 -36.00000000000000000 82.50000000000000000 0.00000000000000000 1.00000000000000000 0.00000000000000000 0.00000000000000000 
1 36.00000000000000000 -82.49999999999998579 40.00000000000004263 0.00000000000000000 -0.00000000000000044 -1.00000000000000000 
1 36.00000000000000000 82.50000000000000000 0.00000000000000000 0.00000000000000000 -1.00000000000000000 0.00000000000000000 
1 -36.00000000000000000 -82.49999999999998579 40.00000000000004263 0.00000000000000000 -0.00000000000000044 -1.00000000000000000 
1 36.00000000000000000 -82.50000000000000000 0.00000000000000000 -1.00000000000000000 0.00000000000000000 0.00000000000000000 
1 -36.00000000000000000 -82.50000000000000000 0.00000000000000000 0.00000000000000000 1.00000000000000000 0.00000000000000000 
Polygon3D 0
PolygonOnTriangulations 0
Surfaces 16
1 -36.00000000000000000 82.50000000000001421 39.99999999999997158 0.00000000000000000 -1.00000000000000000 0.00000000000000044 1.00000000000000000 0.00000000000000000 0.00000000000000000 -0.00000000000000000 0.00000000000000044 1.00000000000000000 
1 -36.00000000000000000 -82.49999999999998579 40.00000000000004263 1.00000000000000000 0.00000000000000000 0.00000000000000000 0.00000000000000000 1.00000000000000000 -0.00000000000000044 -0.00000000000000000 0.00000000000000044 1.00000000000000000 
1 36.00000000000000000 82.50000000000001421 39.99999999999997158 -1.00000000000000000 -0.00000000000000000 0.00000000000000000 0.00000000000000000 -1.00000000000000000 0.00000000000000044 0.00000000000000000 0.00000000000000044 1.00000000000000000 
1 -36.00000000000000000 82.50000000000001421 39.99999999999997158 0.00000000000000000 -1.00000000000000000 0.00000000000000044 1.00000000000000000 0.00000000000000000 0.00000000000000000 -0.00000000000000000 0.00000000000000044 1.00000000000000000 
1 0.00000000000000000 -40.00000000000000000 0.00000000000001151 0.00000000000000000 1.00000000000000000 -0.00000000000000026 0.00000000000000000 0.00000000000000026 1.00000000000000000 1.00000000000000000 -0.00000000000000000 0.00000000000000000 
1 0.00000000000000000 0.00000000000000000 0.00000000000000000 0.00000000000000000 1.00000000000000000 -0.00000000000000022 0.00000000000000000 0.00000000000000022 1.00000000000000000 1.00000000000000000 -0.00000000000000000 0.00000000000000000 
1 -36.00000000000000000 82.50000000000001421 39.99999999999997158 0.00000000000000000 -1.00000000000000000 0.00000000000000044 1.00000000000000000 0.00000000000000000 0.00000000000000000 -0.00000000000000000 0.00000000000000044 1.00000000000000000 
1 0.00000000000000000 -40.00000000000000000 0.00000000000001151 0.00000000000000000 1.00000000000000000 -0.00000000000000026 0.00000000000000000 0.00000000000000026 1.00000000000000000 1.00000000000000000 -0.00000000000000000 0.00000000000000000 
1 0.00000000000000000 -40.00000000000000000 0.00000000000001151 0.00000000000000000 1.00000000000000000 -0.00000000000000026 0.00000000000000000 0.00000000000000026 1.00000000000000000 1.00000000000000000 -0.00000000000000000 0.00000000000000000 
1 36.00000000000000000 -82.49999999999998579 40.00000000000004263 0.00000000000000000 1.00000000000000000 -0.00000000000000044 -1.00000000000000000 0.00000000000000000 0.00000000000000000 0.00000000000000000 0.00000000000000044 1.00000000000000000 
1 36.00000000000000000 82.50000000000001421 39.99999999999997158 -1.00000000000000000 -0.00000000000000000 0.00000000000000000 0.00000000000000000 -1.00000000000000000 0.00000000000000044 0.00000000000000000 0.00000000000000044 1.00000000000000000 
1 36.00000000000000000 82.50000000000001421 39.99999999999997158 -1.00000000000000000 -0.00000000000000000 0.00000000000000000 0.00000000000000000 -1.00000000000000000 0.00000000000000044 0.00000000000000000 0.00000000000000044 1.00000000000000000 
1 36.00000000000000000 -82.49999999999998579 40.00000000000004263 0.00000000000000000 1.00000000000000000 -0.00000000000000044 -1.00000000000000000 0.00000000000000000 0.00000000000000000 0.00000000000000000 0.00000000000000044 1.00000000000000000 
1 36.00000000000000000 -82.49999999999998579 40.00000000000004263 0.00000000000000000 1.00000000000000000 -0.00000000000000044 -1.00000000000000000 0.00000000000000000 0.00000000000000000 0.00000000000000000 0.00000000000000044 1.00000000000000000 
1 -36.00000000000000000 -82.49999999999998579 40.00000000000004263 1.00000000000000000 0.00000000000000000 0.00000000000000000 0.00000000000000000 1.00000000000000000 -0.00000000000000044 -0.00000000000000000 0.00000000000000044 1.00000000000000000 
1 -36.00000000000000000 -82.49999999999998579 40.00000000000004263 1.00000000000000000 0.00000000000000000 0.00000000000000000 0.00000000000000000 1.00000000000000000 -0.00000000000000044 -0.00000000000000000 0.00000000000000044 1.00000000000000000 
Triangulations 0

TShapes 24
Ve
0.000000100000007
-36.000000000000000 82.500000000000000 0.000000000000000
0 0

0101101
*
Ed
 0.000000100000007 1 1 0
1  1 0 0.000000000000000 35.000000000000000
2  1 1 0 0.000000000000000 35.000000000000000
2  2 2 0 0.000000000000000 35.000000000000000
0

0101000
+24 4 -24 6 *
Ve
0.000000100000007
36.000000000000000 82.500000000000000 0.000000000000000
0 0

0101101
*
Ed
 0.000000100000007 1 1 0
1  2 0 0.000000000000000 35.000000000000000
2  3 1 0 0.000000000000000 35.000000000000000
2  4 3 0 0.000000000000000 35.000000000000000
0

0101000
+22 4 -22 6 *
Ed
 0.000000100000007 1 1 0
1  3 0 0.000000000000000 72.000000000000000
2  5 4 10 0.000000000000000 72.000000000000000
2  6 4 12 0.000000000000000 72.000000000000000
2  7 5 13 0.000000000000000 72.000000000000000
2  8 6 17 0.000000000000000 72.000000000000000
2  9 7 21 0.000000000000000 72.000000000000000
2  10 7 23 0.000000000000000 72.000000000000000
2  11 8 24 0.000000000000000 72.000000000000000
2  12 6 25 0.000000000000000 72.000000000000000
2  13 1 26 0.000000000000000 72.000000000000000
2  14 1 27 0.000000000000000 72.000000000000000
2  15 9 28 0.000000000000000 72.000000000000000
2  16 6 29 0.000000000000000 72.000000000000000
0

0101000
+24 0 -22 0 *
Wi

0101100
+23 0 -21 0 -20 4 +20 6 *
Fa
0  0.000000100000007 1 0

0111000
+19 0 *
Ve
0.000000100000007
36.000000000000000 -82.500000000000000 0.000000000000000
0 0

0101101
*
Ed
 0.000000100000007 1 1 0
1  4 0 0.000000000000000 35.000000000000000
2  17 3 0 0.000000000000000 35.000000000000000
2  18 10 0 0.000000000000000 35.000000000000000
0

0101000
+17 4 -17 6 *
Ed
 0.000000100000007 1 1 0
1  5 0 0.000000000000000 165.000000000000000
2  19 11 10 0.000000000000000 165.000000000000000
2  20 11 12 0.000000000000000 165.000000000000000
2  21 5 13 0.000000000000000 165.000000000000000
2  22 6 17 0.000000000000000 165.000000000000000
2  23 12 21 0.000000000000000 165.000000000000000
2  24 12 23 0.000000000000000 165.000000000000000
2  25 8 24 0.000000000000000 165.000000000000000
2  26 6 25 0.000000000000000 165.000000000000000
2  27 3 26 0.000000000000000 165.000000000000000
2  28 3 27 0.000000000000000 165.000000000000000
2  29 9 28 0.000000000000000 165.000000000000000
2  30 6 29 0.000000000000000 165.000000000000000
0

0101000
+22 0 -17 0 *
Wi

0101100
+21 0 -16 0 -15 4 +15 6 *
Fa
0  0.000000100000007 3 0

0111000
+14 0 *
Ve
0.000000100000007
-36.000000000000000 -82.500000000000000 0.000000000000000
0 0

0101101
*
Ed
 0.000000100000007 1 1 0
1  6 0 0.000000000000000 35.000000000000000
2  31 10 0 0.000000000000000 35.000000000000000
2  32 2 0 0.000000000000000 35.000000000000000
0

0101000
+12 4 -12 6 *
Ed
 0.000000100000007 1 1 0
1  7 0 0.000000000000000 72.000000000000000
2  33 13 10 0.000000000000000 72.000000000000000
2  34 13 12 0.000000000000000 72.000000000000000
2  35 5 13 0.000000000000000 72.000000000000000
2  36 6 17 0.000000000000000 72.000000000000000
2  37 14 21 0.000000000000000 72.000000000000000
2  38 14 23 0.000000000000000 72.000000000000000
2  39 8 24 0.000000000000000 72.000000000000000
2  40 6 25 0.000000000000000 72.000000000000000
2  41 10 26 0.000000000000000 72.000000000000000
2  42 10 27 0.000000000000000 72.000000000000000
2  43 9 28 0.000000000000000 72.000000000000000
2  44 6 29 0.000000000000000 72.000000000000000
0

0101000
+17 0 -12 0 *
Wi

0101100
+16 0 -11 0 -10 4 +10 6 *
Fa
0  0.000000100000007 10 0

0111000
+9 0 *
Ed
 0.000000100000007 1 1 0
1  8 0 0.000000000000000 165.000000000000000
2  45 15 10 0.000000000000000 165.000000000000000
2  46 15 12 0.000000000000000 165.000000000000000
2  47 5 13 0.000000000000000 165.000000000000000
2  48 6 17 0.000000000000000 165.000000000000000
2  49 16 21 0.000000000000000 165.000000000000000
2  50 16 23 0.000000000000000 165.000000000000000
2  51 8 24 0.000000000000000 165.000000000000000
2  52 6 25 0.000000000000000 165.000000000000000
2  53 2 26 0.000000000000000 165.000000000000000
2  54 2 27 0.000000000000000 165.000000000000000
2  55 9 28 0.000000000000000 165.000000000000000
2  56 6 29 0.000000000000000 165.000000000000000
0

0101000
+12 0 -24 0 *
Wi

0101100
+11 0 -23 0 -7 4 +7 6 *
Fa
0  0.000000100000007 2 0

0111000
+6 0 *
Wi

0101100
+20 0 +15 0 +10 0 +7 0 *
Fa
0  0.000000100000000 9 0

0111000
+4 31 *
Sh

0101100
+18 0 +13 0 +8 0 +5 0 +3 30 -3 32 *
So

0100000
-2 0 *

+1 0 