
CASCADE Topology V1, (c) Matra-Datavision
Locations 45
1
1.000000000000000 0.000000000000000 0.000000000000000 0.000000000000000 
0.000000000000000 0.000000000000000 -1.000000000000000 0.000000000000000 
0.000000000000000 1.000000000000000 0.000000000000000 0.000000000000000 
1
1.000000000000000 0.000000000000000 0.000000000000000 0.000000000000000 
0.000000000000000 -0.000000000000000 -1.000000000000000 0.000000000000000 
0.000000000000000 1.000000000000000 -0.000000000000000 0.000000000000000 
1
1.000000000000000 0.000000000000000 0.000000000000000 0.000000000000000 
0.000000000000000 -0.000000000000000 -1.000000000000000 0.000000000000000 
0.000000000000000 1.000000000000000 -0.000000000000000 0.000000000000000 
2  2 1 3 -1 0
1
1.000000000000000 0.000000000000000 0.000000000000000 0.000000000000000 
0.000000000000000 1.000000000000000 0.000000000000000 0.000000000000000 
0.000000000000000 0.000000000000000 1.000000000000000 0.000000000000000 
1
1.000000000000000 0.000000000000000 0.000000000000000 0.000000000000000 
0.000000000000000 0.000000000000000 -1.000000000000000 0.000000000000000 
0.000000000000000 1.000000000000000 0.000000000000000 0.000000000000000 
1
1.000000000000000 0.000000000000000 0.000000000000000 0.000000000000000 
0.000000000000000 -0.000000000000000 -1.000000000000000 0.000000000000000 
0.000000000000000 1.000000000000000 -0.000000000000000 0.000000000000000 
2  5 1 6 1 7 -1 0
1
1.000000000000000 0.000000000000000 0.000000000000000 0.000000000000000 
0.000000000000000 1.000000000000000 0.000000000000000 0.000000000000018 
0.000000000000000 0.000000000000000 1.000000000000000 40.000000000000000 
2  5 1 6 1 7 -1 9 1 0
1
1.000000000000000 0.000000000000000 0.000000000000000 0.000000000000000 
0.000000000000000 0.000000000000000 -1.000000000000000 0.000000000000000 
0.000000000000000 1.000000000000000 0.000000000000000 0.000000000000000 
1
1.000000000000000 0.000000000000000 0.000000000000000 0.000000000000000 
0.000000000000000 1.000000000000000 0.000000000000000 0.000000000000000 
0.000000000000000 0.000000000000000 1.000000000000000 0.000000000000000 
2  11 -1 12 -1 0
2  6 -1 5 -1 0
2  7 -1 2 1 3 -1 0
2  5 1 6 1 0
2  7 -1 9 1 2 1 3 -1 0
2  5 1 6 1 7 -1 9 1 2 1 3 -1 0
1
1.000000000000000 0.000000000000000 0.000000000000000 0.000000000000000 
0.000000000000000 1.000000000000000 0.000000000000000 0.000000000000000 
0.000000000000000 0.000000000000000 1.000000000000000 0.000000000000000 
1
1.000000000000000 0.000000000000000 0.000000000000000 0.000000000000000 
0.000000000000000 0.000000000000000 -1.000000000000000 -40.000000000000007 
0.000000000000000 1.000000000000000 0.000000000000000 0.000000000000009 
2  19 1 20 1 3 -1 0
1
1.000000000000000 0.000000000000000 0.000000000000000 0.000000000000000 
0.000000000000000 -0.000000000000000 -1.000000000000000 0.000000000000000 
0.000000000000000 1.000000000000000 -0.000000000000000 0.000000000000000 
1
1.000000000000000 0.000000000000000 0.000000000000000 0.000000000000000 
0.000000000000000 0.000000000000000 -1.000000000000000 -40.000000000000007 
0.000000000000000 1.000000000000000 0.000000000000000 0.000000000000009 
1
1.000000000000000 0.000000000000000 0.000000000000000 0.000000000000000 
0.000000000000000 1.000000000000000 0.000000000000000 0.000000000000000 
0.000000000000000 0.000000000000000 1.000000000000000 0.000000000000000 
2  22 1 23 -1 24 -1 0
1
1.000000000000000 0.000000000000000 0.000000000000000 0.000000000000000 
0.000000000000000 1.000000000000000 0.000000000000000 -0.000000000000013 
0.000000000000000 0.000000000000000 1.000000000000000 -30.000000000000000 
2  26 -1 22 1 23 -1 24 -1 0
2  23 -1 24 -1 0
2  7 -1 9 1 2 1 23 -1 24 -1 0
1
1.000000000000000 0.000000000000000 0.000000000000000 0.000000000000000 
0.000000000000000 -0.000000000000000 -1.000000000000000 0.000000000000000 
0.000000000000000 1.000000000000000 -0.000000000000000 0.000000000000000 
1
1.000000000000000 0.000000000000000 0.000000000000000 0.000000000000000 
0.000000000000000 0.000000000000000 -1.000000000000000 -40.000000000000007 
0.000000000000000 1.000000000000000 0.000000000000000 0.000000000000009 
1
1.000000000000000 0.000000000000000 0.000000000000000 0.000000000000000 
0.000000000000000 1.000000000000000 0.000000000000000 0.000000000000000 
0.000000000000000 0.000000000000000 1.000000000000000 0.000000000000000 
2  30 1 31 -1 32 -1 0
1
1.000000000000000 0.000000000000000 0.000000000000000 0.000000000000000 
0.000000000000000 1.000000000000000 0.000000000000000 -0.000000000000016 
0.000000000000000 0.000000000000000 1.000000000000000 -35.000000000000000 
2  34 -1 30 1 31 -1 32 -1 0
2  31 -1 32 -1 0
2  7 -1 9 1 2 1 31 -1 32 -1 0
2  3 1 20 -1 19 -1 0
1
1.000000000000000 0.000000000000000 0.000000000000000 0.000000000000000 
0.000000000000000 1.000000000000000 0.000000000000000 -0.000000000000016 
0.000000000000000 0.000000000000000 1.000000000000000 -35.000000000000000 
2  39 -1 3 1 20 -1 19 -1 0
2  20 -1 19 -1 0
2  7 -1 9 1 2 1 20 -1 19 -1 0
2  19 1 20 1 3 -1 39 1 0
2  3 -1 39 1 0
2  19 1 20 1 0
Curve2ds 64
1 86.50000000000000000 -40.00000000000000000 0.00000000000000000 1.00000000000000000 
1 86.50000000000000000 -40.00000000000000000 0.00000000000000000 1.00000000000000000 
1 -86.50000000000000000 -40.00000000000000000 1.00000000000000000 0.00000000000000000 
1 -86.50000000000000000 -40.00000000000000000 1.00000000000000000 0.00000000000000000 
1 86.50000000000000000 40.00000000000000000 -1.00000000000000000 0.00000000000000000 
1 86.50000000000000000 40.00000000000000000 -1.00000000000000000 0.00000000000000000 
1 -86.50000000000000000 40.00000000000000000 0.00000000000000000 -1.00000000000000000 
1 -86.50000000000000000 40.00000000000000000 0.00000000000000000 -1.00000000000000000 
1 0.00000000000000000 0.00000000000000000 1.00000000000000000 0.00000000000000000 
1 0.00000000000000000 -30.00000000000000000 1.00000000000000000 0.00000000000000000 
1 82.50000000000000000 -36.00000000000000000 0.00000000000000000 1.00000000000000000 
1 82.49999999999998579 -35.99999999999999289 0.00000000000000000 1.00000000000000000 
1 0.00000000000000000 0.00000000000000000 1.00000000000000000 0.00000000000000000 
1 0.00000000000000000 -35.00000000000000000 1.00000000000000000 0.00000000000000000 
1 82.50000000000000000 -36.00000000000000000 0.00000000000000000 1.00000000000000000 
1 82.49999999999998579 -35.99999999999999289 0.00000000000000000 1.00000000000000000 
1 0.00000000000000000 0.00000000000000000 1.00000000000000000 0.00000000000000000 
1 0.00000000000000000 -35.00000000000000000 1.00000000000000000 0.00000000000000000 
1 82.50000000000000000 -36.00000000000000000 0.00000000000000000 1.00000000000000000 
1 82.49999999999998579 -35.99999999999999289 0.00000000000000000 1.00000000000000000 
1 0.00000000000000000 0.00000000000000000 1.00000000000000000 0.00000000000000000 
1 0.00000000000000089 -30.00000000000000000 1.00000000000000000 0.00000000000000000 
1 82.50000000000000000 36.00000000000000000 -1.00000000000000000 0.00000000000000000 
1 82.49999999999998579 35.99999999999999289 -1.00000000000000000 0.00000000000000000 
1 0.00000000000000000 0.00000000000000000 1.00000000000000000 0.00000000000000000 
1 -0.00000000000000133 -35.00000000000000000 1.00000000000000000 0.00000000000000000 
1 82.50000000000000000 36.00000000000000000 -1.00000000000000000 0.00000000000000000 
1 82.49999999999998579 35.99999999999999289 -1.00000000000000000 0.00000000000000000 
1 0.00000000000000000 0.00000000000000000 1.00000000000000000 0.00000000000000000 
1 -0.00000000000000133 -35.00000000000000000 1.00000000000000000 0.00000000000000000 
1 82.50000000000000000 36.00000000000000000 -1.00000000000000000 0.00000000000000000 
1 82.49999999999998579 35.99999999999999289 -1.00000000000000000 0.00000000000000000 
1 0.00000000000000000 0.00000000000000000 1.00000000000000000 0.00000000000000000 
1 -0.00000000000000000 -30.00000000000000000 1.00000000000000000 0.00000000000000000 
1 -82.50000000000000000 36.00000000000000000 0.00000000000000000 -1.00000000000000000 
1 -82.49999999999998579 35.99999999999999289 0.00000000000000000 -1.00000000000000000 
1 0.00000000000000000 0.00000000000000000 1.00000000000000000 0.00000000000000000 
1 -0.00000000000000000 -35.00000000000000000 1.00000000000000000 0.00000000000000000 
1 -82.50000000000000000 36.00000000000000000 0.00000000000000000 -1.00000000000000000 
1 -82.49999999999998579 35.99999999999999289 0.00000000000000000 -1.00000000000000000 
1 0.00000000000000000 0.00000000000000000 1.00000000000000000 0.00000000000000000 
1 -0.00000000000000000 -35.00000000000000000 1.00000000000000000 0.00000000000000000 
1 -82.50000000000000000 36.00000000000000000 0.00000000000000000 -1.00000000000000000 
1 -82.49999999999998579 35.99999999999999289 0.00000000000000000 -1.00000000000000000 
1 0.00000000000000000 0.00000000000000000 1.00000000000000000 0.00000000000000000 
1 -0.00000000000000089 -30.00000000000000000 1.00000000000000000 0.00000000000000000 
1 -82.50000000000000000 -36.00000000000000000 1.00000000000000000 0.00000000000000000 
1 -82.49999999999998579 -35.99999999999999289 1.00000000000000000 0.00000000000000000 
1 0.00000000000000000 0.00000000000000000 1.00000000000000000 0.00000000000000000 
1 0.00000000000000133 -35.00000000000000000 1.00000000000000000 0.00000000000000000 
1 -82.50000000000000000 -36.00000000000000000 1.00000000000000000 0.00000000000000000 
1 -82.49999999999998579 -35.99999999999999289 1.00000000000000000 0.00000000000000000 
1 0.00000000000000000 0.00000000000000000 1.00000000000000000 0.00000000000000000 
1 0.00000000000000133 -35.00000000000000000 1.00000000000000000 0.00000000000000000 
1 -82.50000000000000000 -36.00000000000000000 1.00000000000000000 0.00000000000000000 
1 -82.49999999999998579 -35.99999999999999289 1.00000000000000000 0.00000000000000000 
1 0.00000000000000000 0.00000000000000000 0.00000000000000000 -1.00000000000000000 
1 165.00000000000000000 0.00000000000000222 0.00000000000000000 -1.00000000000000000 
1 72.00000000000000000 0.00000000000000000 0.00000000000000000 -1.00000000000000000 
1 0.00000000000000000 0.00000000000000000 0.00000000000000000 -1.00000000000000000 
1 165.00000000000000000 -0.00000000000000222 0.00000000000000000 -1.00000000000000000 
1 0.00000000000000000 0.00000000000000000 -0.00000000000000000 -1.00000000000000000 
1 72.00000000000000000 0.00000000000000000 -0.00000000000000000 -1.00000000000000000 
1 0.00000000000000000 0.00000000000000000 0.00000000000000000 -1.00000000000000000 
Curves 16
1 -40.00000000000000000 86.50000000000000000 -0.00000000000003841 0.00000000000000000 0.00000000000000044 1.00000000000000000 
1 40.00000000000000000 86.50000000000000000 -0.00000000000003841 0.00000000000000000 0.00000000000000044 1.00000000000000000 
1 -40.00000000000000000 86.50000000000000000 0.00000000000000000 1.00000000000000000 0.00000000000000000 0.00000000000000000 
1 -40.00000000000000000 -86.50000000000000000 0.00000000000003841 0.00000000000000000 0.00000000000000044 1.00000000000000000 
1 -40.00000000000000000 -86.50000000000000000 0.00000000000000000 0.00000000000000000 1.00000000000000000 0.00000000000000000 
1 40.00000000000000000 -86.50000000000000000 0.00000000000003841 0.00000000000000000 0.00000000000000044 1.00000000000000000 
1 40.00000000000000000 86.50000000000000000 0.00000000000000000 0.00000000000000000 -1.00000000000000000 0.00000000000000000 
1 40.00000000000000000 -86.50000000000000000 0.00000000000000000 -1.00000000000000000 0.00000000000000000 0.00000000000000000 
1 -36.00000000000000000 82.50000000000000000 0.00000000000000000 1.00000000000000000 0.00000000000000000 0.00000000000000000 
1 36.00000000000000000 82.50000000000000000 0.00000000000000000 0.00000000000000000 -1.00000000000000000 0.00000000000000000 
1 36.00000000000000000 -82.50000000000000000 0.00000000000000000 -1.00000000000000000 0.00000000000000000 0.00000000000000000 
1 -36.00000000000000000 -82.50000000000000000 0.00000000000000000 0.00000000000000000 1.00000000000000000 0.00000000000000000 
1 -36.00000000000000000 82.50000000000001421 39.99999999999997158 0.00000000000000000 -0.00000000000000044 -1.00000000000000000 
1 36.00000000000000000 82.50000000000001421 39.99999999999997158 0.00000000000000000 -0.00000000000000044 -1.00000000000000000 
1 36.00000000000000000 -82.49999999999998579 40.00000000000004263 0.00000000000000000 -0.00000000000000044 -1.00000000000000000 
1 -36.00000000000000000 -82.49999999999998579 40.00000000000004263 0.00000000000000000 -0.00000000000000044 -1.00000000000000000 
Polygon3D 0
PolygonOnTriangulations 0
Surfaces 21
1 -40.00000000000000000 86.50000000000000000 -0.00000000000003841 0.00000000000000000 1.00000000000000000 -0.00000000000000044 1.00000000000000000 0.00000000000000000 0.00000000000000000 0.00000000000000000 -0.00000000000000044 -1.00000000000000000 
1 0.00000000000000000 0.00000000000000000 0.00000000000000000 0.00000000000000000 1.00000000000000000 -0.00000000000000022 0.00000000000000000 0.00000000000000022 1.00000000000000000 1.00000000000000000 -0.00000000000000000 0.00000000000000000 
1 0.00000000000000000 0.00000000000000000 0.00000000000000000 0.00000000000000000 1.00000000000000000 -0.00000000000000022 0.00000000000000000 0.00000000000000022 1.00000000000000000 1.00000000000000000 -0.00000000000000000 0.00000000000000000 
1 -40.00000000000000000 -86.50000000000000000 0.00000000000003841 -1.00000000000000000 0.00000000000000000 0.00000000000000000 0.00000000000000000 1.00000000000000000 -0.00000000000000044 -0.00000000000000000 -0.00000000000000044 -1.00000000000000000 
1 40.00000000000000000 86.50000000000000000 -0.00000000000003841 1.00000000000000000 0.00000000000000000 -0.00000000000000000 0.00000000000000000 -1.00000000000000000 0.00000000000000044 0.00000000000000000 -0.00000000000000044 -1.00000000000000000 
1 -36.00000000000000000 82.50000000000001421 39.99999999999997158 0.00000000000000000 -1.00000000000000000 0.00000000000000044 1.00000000000000000 0.00000000000000000 0.00000000000000000 -0.00000000000000000 0.00000000000000044 1.00000000000000000 
1 0.00000000000000000 -40.00000000000000000 0.00000000000001151 0.00000000000000000 1.00000000000000000 -0.00000000000000026 0.00000000000000000 0.00000000000000026 1.00000000000000000 1.00000000000000000 -0.00000000000000000 0.00000000000000000 
1 -36.00000000000000000 82.50000000000001421 39.99999999999997158 0.00000000000000000 -1.00000000000000000 0.00000000000000044 1.00000000000000000 0.00000000000000000 0.00000000000000000 -0.00000000000000000 0.00000000000000044 1.00000000000000000 
1 0.00000000000000000 -40.00000000000000000 0.00000000000001151 0.00000000000000000 1.00000000000000000 -0.00000000000000026 0.00000000000000000 0.00000000000000026 1.00000000000000000 1.00000000000000000 -0.00000000000000000 0.00000000000000000 
1 -36.00000000000000000 82.50000000000001421 39.99999999999997158 0.00000000000000000 -1.00000000000000000 0.00000000000000044 1.00000000000000000 0.00000000000000000 0.00000000000000000 -0.00000000000000000 0.00000000000000044 1.00000000000000000 
1 0.00000000000000000 -40.00000000000000000 0.00000000000001151 0.00000000000000000 1.00000000000000000 -0.00000000000000026 0.00000000000000000 0.00000000000000026 1.00000000000000000 1.00000000000000000 -0.00000000000000000 0.00000000000000000 
1 36.00000000000000000 82.50000000000001421 39.99999999999997158 -1.00000000000000000 -0.00000000000000000 0.00000000000000000 0.00000000000000000 -1.00000000000000000 0.00000000000000044 0.00000000000000000 0.00000000000000044 1.00000000000000000 
1 36.00000000000000000 82.50000000000001421 39.99999999999997158 -1.00000000000000000 -0.00000000000000000 0.00000000000000000 0.00000000000000000 -1.00000000000000000 0.00000000000000044 0.00000000000000000 0.00000000000000044 1.00000000000000000 
1 36.00000000000000000 82.50000000000001421 39.99999999999997158 -1.00000000000000000 -0.00000000000000000 0.00000000000000000 0.00000000000000000 -1.00000000000000000 0.00000000000000044 0.00000000000000000 0.00000000000000044 1.00000000000000000 
1 36.00000000000000000 -82.49999999999998579 40.00000000000004263 0.00000000000000000 1.00000000000000000 -0.00000000000000044 -1.00000000000000000 0.00000000000000000 0.00000000000000000 0.00000000000000000 0.00000000000000044 1.00000000000000000 
1 36.00000000000000000 -82.49999999999998579 40.00000000000004263 0.00000000000000000 1.00000000000000000 -0.00000000000000044 -1.00000000000000000 0.00000000000000000 0.00000000000000000 0.00000000000000000 0.00000000000000044 1.00000000000000000 
1 36.00000000000000000 -82.49999999999998579 40.00000000000004263 0.00000000000000000 1.00000000000000000 -0.00000000000000044 -1.00000000000000000 0.00000000000000000 0.00000000000000000 0.00000000000000000 0.00000000000000044 1.00000000000000000 
1 -36.00000000000000000 -82.49999999999998579 40.00000000000004263 1.00000000000000000 0.00000000000000000 0.00000000000000000 0.00000000000000000 1.00000000000000000 -0.00000000000000044 -0.00000000000000000 0.00000000000000044 1.00000000000000000 
1 -36.00000000000000000 -82.49999999999998579 40.00000000000004263 1.00000000000000000 0.00000000000000000 0.00000000000000000 0.00000000000000000 1.00000000000000000 -0.00000000000000044 -0.00000000000000000 0.00000000000000044 1.00000000000000000 
1 -36.00000000000000000 -82.49999999999998579 40.00000000000004263 1.00000000000000000 0.00000000000000000 0.00000000000000000 0.00000000000000000 1.00000000000000000 -0.00000000000000044 -0.00000000000000000 0.00000000000000044 1.00000000000000000 
1 40.00000000000000000 -86.50000000000000000 0.00000000000003841 0.00000000000000000 -1.00000000000000000 0.00000000000000044 -1.00000000000000000 0.00000000000000000 0.00000000000000000 -0.00000000000000000 -0.00000000000000044 -1.00000000000000000 
Triangulations 0

TShapes 49
Ve
0.000000100000000
-40.000000000000000 86.500000000000000 0.000000000000000
0 0

0101101
*
Ed
 0.000000100000000 1 1 0
1  1 0 0.000000000000000 40.000000000000000
0

0101000
+49 8 -49 10 *
Ve
0.000000100000000
40.000000000000000 86.500000000000000 0.000000000000000
0 0

0101101
*
Ed
 0.000000100000000 1 1 0
1  2 0 0.000000000000000 40.000000000000000
0

0101000
+47 8 -47 10 *
Ed
 0.000000100000000 1 1 0
1  3 0 0.000000000000000 80.000000000000000
2  1 2 13 0.000000000000000 80.000000000000000
2  2 3 14 0.000000000000000 80.000000000000000
0

0101000
+49 0 -47 0 *
Wi

0101100
+48 0 -46 0 -45 8 +45 10 *
Fa
0  0.000000100000000 1 0

0101000
+44 0 *
Ve
0.000000100000000
-40.000000000000000 -86.500000000000000 0.000000000000000
0 0

0101101
*
Ed
 0.000000100000000 1 1 0
1  4 0 0.000000000000000 40.000000000000000
0

0101000
+42 8 -42 10 *
Ed
 0.000000100000000 1 1 0
1  5 0 0.000000000000000 173.000000000000000
2  3 2 13 0.000000000000000 173.000000000000000
2  4 3 14 0.000000000000000 173.000000000000000
0

0101000
+42 0 -49 0 *
Wi

0101100
+41 0 -48 0 -40 8 +40 10 *
Fa
0  0.000000100000000 4 0

0101000
+39 0 *
Ve
0.000000100000000
40.000000000000000 -86.500000000000000 0.000000000000000
0 0

0101101
*
Ed
 0.000000100000000 1 1 0
1  6 0 0.000000000000000 40.000000000000000
0

0101000
+37 8 -37 10 *
Ed
 0.000000100000000 1 1 0
1  7 0 0.000000000000000 173.000000000000000
2  5 2 13 0.000000000000000 173.000000000000000
2  6 3 14 0.000000000000000 173.000000000000000
0

0101000
+47 0 -37 0 *
Wi

0101100
+46 0 -36 0 -35 8 +35 10 *
Fa
0  0.000000100000000 5 0

0101000
+34 0 *
Ed
 0.000000100000000 1 1 0
1  8 0 0.000000000000000 80.000000000000000
2  7 2 13 0.000000000000000 80.000000000000000
2  8 3 14 0.000000000000000 80.000000000000000
0

0101000
+37 0 -42 0 *
Wi

0101100
+45 0 +35 0 +32 0 +40 0 *
Fa
0  0.000000100000000 3 0

0101000
+31 16 *
Wi

0101100
+45 18 +40 18 +35 18 +32 18 *
Ve
0.000000100000007
-36.000000000000000 82.500000000000000 0.000000000000000
0 0

0101101
*
Ve
0.000000100000007
36.000000000000000 82.500000000000000 0.000000000000000
0 0

0101101
*
Ed
 0.000000100000007 1 1 0
1  9 0 0.000000000000000 72.000000000000000
2  9 6 25 0.000000000000000 72.000000000000000
2  10 6 27 0.000000000000000 72.000000000000000
2  11 7 28 0.000000000000000 72.000000000000000
2  12 3 29 0.000000000000000 72.000000000000000
2  13 8 33 0.000000000000000 72.000000000000000
2  14 8 35 0.000000000000000 72.000000000000000
2  15 9 36 0.000000000000000 72.000000000000000
2  16 3 37 0.000000000000000 72.000000000000000
2  17 10 38 0.000000000000000 72.000000000000000
2  18 10 40 0.000000000000000 72.000000000000000
2  19 11 41 0.000000000000000 72.000000000000000
2  20 3 42 0.000000000000000 72.000000000000000
0

0101000
+28 0 -27 0 *
Ve
0.000000100000007
36.000000000000000 -82.500000000000000 0.000000000000000
0 0

0101101
*
Ed
 0.000000100000007 1 1 0
1  10 0 0.000000000000000 165.000000000000000
2  21 12 25 0.000000000000000 165.000000000000000
2  22 12 27 0.000000000000000 165.000000000000000
2  23 7 28 0.000000000000000 165.000000000000000
2  24 3 29 0.000000000000000 165.000000000000000
2  25 13 33 0.000000000000000 165.000000000000000
2  26 13 35 0.000000000000000 165.000000000000000
2  27 9 36 0.000000000000000 165.000000000000000
2  28 3 37 0.000000000000000 165.000000000000000
2  29 14 38 0.000000000000000 165.000000000000000
2  30 14 40 0.000000000000000 165.000000000000000
2  31 11 41 0.000000000000000 165.000000000000000
2  32 3 42 0.000000000000000 165.000000000000000
0

0101000
+27 0 -25 0 *
Ve
0.000000100000007
-36.000000000000000 -82.500000000000000 0.000000000000000
0 0

0101101
*
Ed
 0.000000100000007 1 1 0
1  11 0 0.000000000000000 72.000000000000000
2  33 15 25 0.000000000000000 72.000000000000000
2  34 15 27 0.000000000000000 72.000000000000000
2  35 7 28 0.000000000000000 72.000000000000000
2  36 3 29 0.000000000000000 72.000000000000000
2  37 16 33 0.000000000000000 72.000000000000000
2  38 16 35 0.000000000000000 72.000000000000000
2  39 9 36 0.000000000000000 72.000000000000000
2  40 3 37 0.000000000000000 72.000000000000000
2  41 17 38 0.000000000000000 72.000000000000000
2  42 17 40 0.000000000000000 72.000000000000000
2  43 11 41 0.000000000000000 72.000000000000000
2  44 3 42 0.000000000000000 72.000000000000000
0

0101000
+25 0 -23 0 *
Ed
 0.000000100000007 1 1 0
1  12 0 0.000000000000000 165.000000000000000
2  45 18 25 0.000000000000000 165.000000000000000
2  46 18 27 0.000000000000000 165.000000000000000
2  47 7 28 0.000000000000000 165.000000000000000
2  48 3 29 0.000000000000000 165.000000000000000
2  49 19 33 0.000000000000000 165.000000000000000
2  50 19 35 0.000000000000000 165.000000000000000
2  51 9 36 0.000000000000000 165.000000000000000
2  52 3 37 0.000000000000000 165.000000000000000
2  53 20 38 0.000000000000000 165.000000000000000
2  54 20 40 0.000000000000000 165.000000000000000
2  55 11 41 0.000000000000000 165.000000000000000
2  56 3 42 0.000000000000000 165.000000000000000
0

0101000
+23 0 -28 0 *
Wi

0101100
-26 21 -24 21 -22 21 -21 21 *
Fa
0  0.000000100000000 3 17

0101000
+29 0 +20 0 *
Wi

0101100
+36 0 -41 0 -32 8 +32 10 *
Fa
0  0.000000100000000 21 0

0101000
+18 0 *
Ed
 0.000000100000007 1 1 0
1  13 0 0.000000000000000 35.000000000000000
2  57 10 0 0.000000000000000 35.000000000000000
2  58 20 0 0.000000000000000 35.000000000000000
0

0101000
+28 21 -28 43 *
Ed
 0.000000100000007 1 1 0
1  14 0 0.000000000000000 35.000000000000000
2  59 10 0 0.000000000000000 35.000000000000000
2  60 14 0 0.000000000000000 35.000000000000000
0

0101000
+27 21 -27 43 *
Wi

0101100
+16 0 -15 0 -26 21 +26 43 *
Fa
0  0.000000100000007 10 0

0101000
+14 0 *
Ed
 0.000000100000007 1 1 0
1  15 0 0.000000000000000 35.000000000000000
2  61 14 0 0.000000000000000 35.000000000000000
2  62 17 0 0.000000000000000 35.000000000000000
0

0101000
+25 21 -25 43 *
Wi

0101100
+15 0 -12 0 -24 21 +24 43 *
Fa
0  0.000000100000007 14 0

0101000
+11 0 *
Ed
 0.000000100000007 1 1 0
1  16 0 0.000000000000000 35.000000000000000
2  63 17 0 0.000000000000000 35.000000000000000
2  64 20 0 0.000000000000000 35.000000000000000
0

0101000
+23 21 -23 43 *
Wi

0101100
+12 0 -9 0 -22 21 +22 43 *
Fa
0  0.000000100000007 17 0

0101000
+8 0 *
Wi

0101100
+9 0 -16 0 -21 21 +21 43 *
Fa
0  0.000000100000007 20 0

0101000
+6 0 *
Wi

0101100
+26 0 +24 0 +22 0 +21 0 *
Fa
0  0.000000100000000 11 0

0101000
+4 45 *
Sh

0101100
+43 4 +38 4 +33 4 +30 15 -19 0 +17 4 +13 0 +10 0 +7 0 +5 0 
-3 44 *
So

0100000
+2 0 *

+1 1 