
CASCADE Topology V1, (c) Matra-Datavision
Locations 28
1
1.000000000000000 0.000000000000000 0.000000000000000 0.000000000000000 
0.000000000000000 1.000000000000000 0.000000000000000 0.000000000000000 
0.000000000000000 0.000000000000000 1.000000000000000 0.000000000000000 
1
1.000000000000000 0.000000000000000 0.000000000000000 0.000000000000000 
0.000000000000000 -0.000000000000000 -1.000000000000000 0.000000000000000 
0.000000000000000 1.000000000000000 -0.000000000000000 0.000000000000000 
1
1.000000000000000 0.000000000000000 0.000000000000000 0.000000000000000 
0.000000000000000 -0.000000000000000 -1.000000000000000 0.000000000000000 
0.000000000000000 1.000000000000000 -0.000000000000000 0.000000000000000 
2  2 1 3 -1 0
1
1.000000000000000 0.000000000000000 0.000000000000000 0.000000000000000 
0.000000000000000 -0.000000000000000 -1.000000000000000 0.000000000000000 
0.000000000000000 1.000000000000000 -0.000000000000000 0.000000000000000 
2  5 -1 3 1 2 -1 0
1
1.000000000000000 0.000000000000000 0.000000000000000 0.000000000000000 
0.000000000000000 1.000000000000000 0.000000000000000 0.000000000000000 
0.000000000000000 0.000000000000000 1.000000000000000 0.000000000000000 
1
1.000000000000000 0.000000000000000 0.000000000000000 0.000000000000000 
0.000000000000000 0.000000000000000 -1.000000000000000 0.000000000000000 
0.000000000000000 1.000000000000000 0.000000000000000 0.000000000000000 
1
1.000000000000000 0.000000000000000 0.000000000000000 0.000000000000000 
0.000000000000000 -0.000000000000000 -1.000000000000000 0.000000000000000 
0.000000000000000 1.000000000000000 -0.000000000000000 0.000000000000000 
2  7 1 8 1 9 -1 0
2  5 -1 3 1 2 -1 9 1 8 -1 7 -1 0
1
1.000000000000000 0.000000000000000 0.000000000000000 0.000000000000000 
0.000000000000000 1.000000000000000 0.000000000000000 0.000000000000018 
0.000000000000000 0.000000000000000 1.000000000000000 40.000000000000000 
2  7 1 8 1 9 -1 12 1 0
2  5 -1 3 1 2 -1 12 -1 9 1 8 -1 7 -1 0
2  9 -1 2 1 3 -1 0
2  7 1 8 1 0
2  9 -1 12 1 2 1 3 -1 0
2  7 1 8 1 9 -1 12 1 2 1 3 -1 0
1
1.000000000000000 0.000000000000000 0.000000000000000 0.000000000000000 
0.000000000000000 1.000000000000000 0.000000000000000 0.000000000000000 
0.000000000000000 0.000000000000000 1.000000000000000 0.000000000000000 
1
1.000000000000000 0.000000000000000 0.000000000000000 0.000000000000000 
0.000000000000000 0.000000000000000 -1.000000000000000 -40.000000000000007 
0.000000000000000 1.000000000000000 0.000000000000000 0.000000000000009 
2  19 1 20 1 3 -1 0
2  5 -1 3 1 20 -1 19 -1 0
2  5 -1 0
1
1.000000000000000 0.000000000000000 0.000000000000000 0.000000000000000 
0.000000000000000 1.000000000000000 0.000000000000000 -0.000000000000016 
0.000000000000000 0.000000000000000 1.000000000000000 -35.000000000000000 
2  19 1 20 1 3 -1 24 1 0
2  5 -1 24 -1 3 1 20 -1 19 -1 0
2  3 -1 24 1 0
2  19 1 20 1 0
Curve2ds 0
Curves 24
1 -40.00000000000000711 0.00000000000001921 86.50000000000001421 0.00000000000000000 -1.00000000000000000 0.00000000000000022 
1 40.00000000000000711 0.00000000000001921 86.50000000000001421 0.00000000000000000 -1.00000000000000000 0.00000000000000022 
1 -40.00000000000000711 -0.00000000000001921 86.50000000000001421 1.00000000000000000 0.00000000000000000 0.00000000000000000 
1 -40.00000000000000711 -40.00000000000002842 46.50000000000001421 1.00000000000000000 0.00000000000000000 0.00000000000000000 
1 -40.00000000000000711 -0.00000000000001921 -86.50000000000001421 0.00000000000000000 -1.00000000000000000 0.00000000000000022 
1 -40.00000000000000711 0.00000000000001921 -86.50000000000001421 0.00000000000000000 -0.00000000000000022 1.00000000000000000 
1 -40.00000000000000711 -39.99999999999998579 -126.50000000000001421 0.00000000000000000 -0.00000000000000022 1.00000000000000000 
1 40.00000000000000711 -0.00000000000001921 -86.50000000000001421 0.00000000000000000 -1.00000000000000000 0.00000000000000022 
1 40.00000000000000711 -0.00000000000001921 86.50000000000001421 0.00000000000000000 0.00000000000000022 -1.00000000000000000 
1 40.00000000000000711 -40.00000000000002842 46.50000000000001421 0.00000000000000000 0.00000000000000022 -1.00000000000000000 
1 40.00000000000000711 0.00000000000001921 -86.50000000000001421 -1.00000000000000000 -0.00000000000000000 0.00000000000000000 
1 40.00000000000000711 -39.99999999999998579 -126.50000000000001421 -1.00000000000000000 -0.00000000000000000 0.00000000000000000 
1 -36.00000000000000711 -40.00000000000003553 42.50000000000000000 1.00000000000000000 0.00000000000000000 0.00000000000000000 
1 36.00000000000000711 -40.00000000000003553 42.50000000000000000 0.00000000000000000 0.00000000000000022 -1.00000000000000000 
1 36.00000000000000711 -39.99999999999999289 -122.50000000000002842 -1.00000000000000000 -0.00000000000000000 0.00000000000000000 
1 -36.00000000000000711 -39.99999999999999289 -122.50000000000002842 0.00000000000000000 -0.00000000000000022 1.00000000000000000 
1 -36.00000000000000711 -40.00000000000000000 82.50000000000001421 0.00000000000000000 1.00000000000000000 -0.00000000000000022 
1 36.00000000000000711 -40.00000000000000000 82.50000000000001421 0.00000000000000000 1.00000000000000000 -0.00000000000000022 
1 -36.00000000000000711 -5.00000000000002576 77.50000000000000000 1.00000000000000000 0.00000000000000000 0.00000000000000000 
1 36.00000000000000711 -40.00000000000002842 -82.50000000000001421 0.00000000000000000 1.00000000000000000 -0.00000000000000022 
1 36.00000000000000711 -5.00000000000002576 77.50000000000000000 0.00000000000000000 0.00000000000000022 -1.00000000000000000 
1 -36.00000000000000711 -40.00000000000002842 -82.50000000000001421 0.00000000000000000 1.00000000000000000 -0.00000000000000022 
1 36.00000000000000711 -4.99999999999998845 -87.50000000000002842 -1.00000000000000000 -0.00000000000000000 0.00000000000000000 
1 -36.00000000000000711 -4.99999999999998845 -87.50000000000002842 0.00000000000000000 -0.00000000000000022 1.00000000000000000 
Polygon3D 0
PolygonOnTriangulations 0
Surfaces 11
1 -40.00000000000000711 0.00000000000001921 86.50000000000001421 0.00000000000000000 0.00000000000000022 1.00000000000000000 1.00000000000000000 0.00000000000000000 -0.00000000000000000 -0.00000000000000000 1.00000000000000000 -0.00000000000000022 
1 -40.00000000000000711 -0.00000000000001921 -86.50000000000001421 -1.00000000000000000 -0.00000000000000000 0.00000000000000000 0.00000000000000000 0.00000000000000022 1.00000000000000000 -0.00000000000000000 1.00000000000000000 -0.00000000000000022 
1 40.00000000000000711 0.00000000000001921 86.50000000000001421 1.00000000000000000 0.00000000000000000 0.00000000000000000 0.00000000000000000 -0.00000000000000022 -1.00000000000000000 0.00000000000000000 1.00000000000000000 -0.00000000000000022 
1 0.00000000000000000 0.00000000000000000 0.00000000000000000 0.00000000000000000 0.00000000000000000 1.00000000000000000 0.00000000000000000 -1.00000000000000000 0.00000000000000000 1.00000000000000000 0.00000000000000000 -0.00000000000000000 
1 0.00000000000000000 39.99999999999999289 -40.00000000000001421 0.00000000000000000 0.00000000000000000 1.00000000000000000 0.00000000000000000 -1.00000000000000000 0.00000000000000000 1.00000000000000000 0.00000000000000000 -0.00000000000000000 
1 40.00000000000000711 -0.00000000000001921 -86.50000000000001421 0.00000000000000000 -0.00000000000000022 -1.00000000000000000 -1.00000000000000000 -0.00000000000000000 0.00000000000000000 -0.00000000000000000 1.00000000000000000 -0.00000000000000022 
1 -36.00000000000000711 -40.00000000000000000 82.50000000000001421 0.00000000000000000 -0.00000000000000022 -1.00000000000000000 1.00000000000000000 0.00000000000000000 0.00000000000000000 0.00000000000000000 -1.00000000000000000 0.00000000000000022 
1 36.00000000000000711 -40.00000000000000000 82.50000000000001421 -1.00000000000000000 0.00000000000000000 -0.00000000000000000 0.00000000000000000 -0.00000000000000022 -1.00000000000000000 -0.00000000000000000 -1.00000000000000000 0.00000000000000022 
1 36.00000000000000711 -40.00000000000002842 -82.50000000000001421 0.00000000000000000 0.00000000000000022 1.00000000000000000 -1.00000000000000000 0.00000000000000000 0.00000000000000000 0.00000000000000000 -1.00000000000000000 0.00000000000000022 
1 -36.00000000000000711 -40.00000000000002842 -82.50000000000001421 1.00000000000000000 0.00000000000000000 0.00000000000000000 -0.00000000000000000 0.00000000000000022 1.00000000000000000 0.00000000000000000 -1.00000000000000000 0.00000000000000022 
1 0.00000000000000000 -35.00000000000000000 -4.99999999999999289 0.00000000000000000 0.00000000000000004 1.00000000000000000 0.00000000000000000 -1.00000000000000000 0.00000000000000004 1.00000000000000000 0.00000000000000000 -0.00000000000000000 
Triangulations 0

TShapes 65
Ve
0.000000100000000
-40.000000000000021 -86.500000000000057 0.000000000000000
0 0

0101101
*
Ve
0.000000100000000
-40.000000000000021 -86.500000000000057 -40.000000000000021
0 0

0101101
*
Ed
 0.000000100000000 1 1 0
1  1 0 0.000000000000000 40.000000000000007
0

0101000
+65 6 -64 6 *
Ve
0.000000100000000
40.000000000000021 -86.500000000000057 0.000000000000000
0 0

0101101
*
Ve
0.000000100000000
40.000000000000021 -86.500000000000057 -40.000000000000021
0 0

0101101
*
Ed
 0.000000100000000 1 1 0
1  2 0 0.000000000000000 40.000000000000007
0

0101000
+62 6 -61 6 *
Ed
 0.000000100000000 1 1 0
1  3 0 0.000000000000000 80.000000000000014
0

0101000
+65 11 -62 11 *
Ed
 0.000000100000000 1 1 0
1  4 0 0.000000000000000 80.000000000000014
0

0101000
+64 14 -61 14 *
Wi

0101100
+63 0 -60 0 -59 10 +58 13 *
Fa
0  0.000000100000000 1 0

0101000
+57 0 *
Ve
0.000000100000000
-40.000000000000021 86.500000000000057 -0.000000000000000
0 0

0101101
*
Ve
0.000000100000000
-40.000000000000021 86.500000000000057 -40.000000000000021
0 0

0101101
*
Ed
 0.000000100000000 1 1 0
1  5 0 0.000000000000000 40.000000000000007
0

0101000
+55 6 -54 6 *
Ed
 0.000000100000000 1 1 0
1  6 0 0.000000000000000 173.000000000000028
0

0101000
+55 11 -65 11 *
Ed
 0.000000100000000 1 1 0
1  7 0 0.000000000000000 173.000000000000028
0

0101000
+54 14 -64 14 *
Wi

0101100
+53 0 -63 0 -52 10 +51 13 *
Fa
0  0.000000100000000 2 0

0101000
+50 0 *
Ve
0.000000100000000
40.000000000000021 86.500000000000057 -0.000000000000000
0 0

0101101
*
Ve
0.000000100000000
40.000000000000021 86.500000000000057 -40.000000000000021
0 0

0101101
*
Ed
 0.000000100000000 1 1 0
1  8 0 0.000000000000000 40.000000000000007
0

0101000
+48 6 -47 6 *
Ed
 0.000000100000000 1 1 0
1  9 0 0.000000000000000 173.000000000000028
0

0101000
+62 11 -48 11 *
Ed
 0.000000100000000 1 1 0
1  10 0 0.000000000000000 173.000000000000028
0

0101000
+61 14 -47 14 *
Wi

0101100
+60 0 -46 0 -45 10 +44 13 *
Fa
0  0.000000100000000 3 0

0101000
+43 0 *
Ed
 0.000000100000000 1 1 0
1  11 0 0.000000000000000 80.000000000000014
0

0101000
+48 11 -55 11 *
Wi

0101100
+59 0 +45 0 +41 0 +52 0 *
Fa
0  0.000000100000000 4 0

0101000
+40 16 *
Ed
 0.000000100000000 1 1 0
1  12 0 0.000000000000000 80.000000000000014
0

0101000
+47 14 -54 14 *
Wi

0101100
+58 18 +51 18 +44 18 +38 18 *
Ve
0.000000100000007
-36.000000000000014 -82.500000000000028 -40.000000000000021
0 0

0101101
*
Ve
0.000000100000007
36.000000000000014 -82.500000000000028 -40.000000000000021
0 0

0101101
*
Ed
 0.000000100000007 1 1 0
1  13 0 0.000000000000000 72.000000000000014
0

0101000
+36 22 -35 22 *
Ve
0.000000100000007
36.000000000000014 82.500000000000028 -40.000000000000021
0 0

0101101
*
Ed
 0.000000100000007 1 1 0
1  14 0 0.000000000000000 165.000000000000028
0

0101000
+35 22 -33 22 *
Ve
0.000000100000007
-36.000000000000014 82.500000000000028 -40.000000000000021
0 0

0101101
*
Ed
 0.000000100000007 1 1 0
1  15 0 0.000000000000000 72.000000000000014
0

0101000
+33 22 -31 22 *
Ed
 0.000000100000007 1 1 0
1  16 0 0.000000000000000 165.000000000000028
0

0101000
+31 22 -36 22 *
Wi

0101100
-34 21 -32 21 -30 21 -29 21 *
Fa
0  0.000000100000000 5 17

0101000
+37 0 +28 0 *
Wi

0101100
+46 0 -53 0 -41 10 +38 13 *
Fa
0  0.000000100000000 6 0

0101000
+26 0 *
Ve
0.000000100000007
-36.000000000000014 -82.500000000000028 -5.000000000000008
0 0

0101101
*
Ed
 0.000000100000007 1 1 0
1  17 0 0.000000000000000 35.000000000000007
0

0101000
+36 23 -24 23 *
Ve
0.000000100000007
36.000000000000014 -82.500000000000028 -5.000000000000008
0 0

0101101
*
Ed
 0.000000100000007 1 1 0
1  18 0 0.000000000000000 35.000000000000007
0

0101000
+35 23 -22 23 *
Ed
 0.000000100000007 1 1 0
1  19 0 0.000000000000000 72.000000000000014
0

0101000
+24 26 -22 26 *
Wi

0101100
+23 0 -21 0 -34 21 +20 25 *
Fa
0  0.000000100000007 7 0

0101000
+19 0 *
Ve
0.000000100000007
36.000000000000014 82.500000000000028 -5.000000000000008
0 0

0101101
*
Ed
 0.000000100000007 1 1 0
1  20 0 0.000000000000000 35.000000000000007
0

0101000
+33 23 -17 23 *
Ed
 0.000000100000007 1 1 0
1  21 0 0.000000000000000 165.000000000000028
0

0101000
+22 26 -17 26 *
Wi

0101100
+21 0 -16 0 -32 21 +15 25 *
Fa
0  0.000000100000007 8 0

0101000
+14 0 *
Ve
0.000000100000007
-36.000000000000014 82.500000000000028 -5.000000000000008
0 0

0101101
*
Ed
 0.000000100000007 1 1 0
1  22 0 0.000000000000000 35.000000000000007
0

0101000
+31 23 -12 23 *
Ed
 0.000000100000007 1 1 0
1  23 0 0.000000000000000 72.000000000000014
0

0101000
+17 26 -12 26 *
Wi

0101100
+16 0 -11 0 -30 21 +10 25 *
Fa
0  0.000000100000007 9 0

0101000
+9 0 *
Ed
 0.000000100000007 1 1 0
1  24 0 0.000000000000000 165.000000000000028
0

0101000
+12 26 -24 26 *
Wi

0101100
+11 0 -23 0 -29 21 +7 25 *
Fa
0  0.000000100000007 10 0

0101000
+6 0 *
Wi

0101100
+20 0 +15 0 +10 0 +7 0 *
Fa
0  0.000000100000000 11 0

0101000
+4 28 *
Sh

0101100
+56 4 +49 4 +42 4 +39 15 -27 0 +25 4 +18 0 +13 0 +8 0 +5 0 
-3 27 *
So

1100000
+2 0 *

+1 1 