G04*
G04 #@! TF.GenerationSoftware,Altium Limited,Altium Designer,22.2.1 (43)*
G04*
G04 Layer_Color=128*
%FSLAX23Y23*%
%MOIN*%
G70*
G04*
G04 #@! TF.SameCoordinates,8410DD60-BE5F-4665-B969-63B9D7D5DCD7*
G04*
G04*
G04 #@! TF.FilePolarity,Positive*
G04*
G01*
G75*
%ADD83C,0.002*%
D83*
X2109Y1205D02*
X2162D01*
X2135Y1179D02*
Y1231D01*
X2259Y1205D02*
X2311D01*
X2285Y1179D02*
Y1231D01*
X2259Y865D02*
X2311D01*
X2285Y838D02*
Y891D01*
X2109Y865D02*
X2162D01*
X2135Y838D02*
Y891D01*
X968Y225D02*
X1012D01*
X990Y203D02*
Y247D01*
X1068Y325D02*
X1112D01*
X1090Y303D02*
Y347D01*
X968Y425D02*
X1012D01*
X990Y403D02*
Y447D01*
X1068Y525D02*
X1112D01*
X1090Y503D02*
Y547D01*
X968Y625D02*
X1012D01*
X990Y603D02*
Y647D01*
X1068Y725D02*
X1112D01*
X1090Y703D02*
Y747D01*
X968Y825D02*
X1012D01*
X990Y803D02*
Y847D01*
X1068Y925D02*
X1112D01*
X1090Y903D02*
Y947D01*
X1668Y950D02*
X1712D01*
X1690Y928D02*
Y972D01*
X1668Y800D02*
X1712D01*
X1690Y778D02*
Y822D01*
X1668Y650D02*
X1712D01*
X1690Y628D02*
Y672D01*
X1668Y500D02*
X1712D01*
X1690Y478D02*
Y522D01*
X1668Y350D02*
X1712D01*
X1690Y328D02*
Y372D01*
X1668Y200D02*
X1712D01*
X1690Y178D02*
Y222D01*
X1813Y1760D02*
X1847D01*
X1830Y1743D02*
Y1777D01*
X2010Y1760D02*
X2044D01*
X2027Y1743D02*
Y1777D01*
X569Y750D02*
X601D01*
X585Y734D02*
Y766D01*
X569Y553D02*
X601D01*
X585Y537D02*
Y569D01*
X619Y1563D02*
X651D01*
X635Y1547D02*
Y1579D01*
X619Y1760D02*
X651D01*
X635Y1744D02*
Y1776D01*
X189Y128D02*
X231D01*
X210Y107D02*
Y148D01*
X189Y915D02*
X231D01*
X210Y894D02*
Y936D01*
X399Y845D02*
X411D01*
X405Y839D02*
Y851D01*
X242Y998D02*
X254D01*
X248Y992D02*
Y1003D01*
X1674Y1610D02*
X1686D01*
X1680Y1604D02*
Y1616D01*
X1454Y1585D02*
X1466D01*
X1460Y1579D02*
Y1591D01*
X309Y1260D02*
X321D01*
X315Y1254D02*
Y1266D01*
X174Y1350D02*
X186D01*
X180Y1344D02*
Y1356D01*
X929Y1365D02*
X941D01*
X935Y1359D02*
Y1371D01*
X808Y1150D02*
X820D01*
X814Y1144D02*
Y1156D01*
X819Y1370D02*
X831D01*
X825Y1364D02*
Y1376D01*
X674Y1465D02*
X686D01*
X680Y1459D02*
Y1471D01*
X664Y660D02*
X676D01*
X670Y654D02*
Y666D01*
X999Y1590D02*
X1011D01*
X1005Y1584D02*
Y1596D01*
X1104Y1655D02*
X1116D01*
X1110Y1649D02*
Y1661D01*
X1049Y1510D02*
X1061D01*
X1055Y1504D02*
Y1516D01*
M02*
