G04*
G04 #@! TF.GenerationSoftware,Altium Limited,Altium Designer,22.2.1 (43)*
G04*
G04 Layer_Color=65535*
%FSLAX23Y23*%
%MOIN*%
G70*
G04*
G04 #@! TF.SameCoordinates,8410DD60-BE5F-4665-B969-63B9D7D5DCD7*
G04*
G04*
G04 #@! TF.FilePolarity,Positive*
G04*
G01*
G75*
%ADD10C,0.010*%
%ADD11C,0.010*%
%ADD12C,0.008*%
%ADD13C,0.006*%
%ADD14C,0.005*%
D10*
X420Y1293D02*
G03*
X420Y1293I-4J0D01*
G01*
X486Y1298D02*
X644D01*
X486Y1102D02*
X644D01*
Y1195D02*
Y1256D01*
X1291Y57D02*
X1351Y77D01*
X1291Y57D02*
X1351Y37D01*
X1141D02*
X1201Y57D01*
X1141Y77D02*
X1201Y57D01*
X1291D02*
X1391D01*
X1101D02*
X1201D01*
Y47D02*
Y62D01*
X1291Y42D02*
Y67D01*
X640Y250D02*
Y170D01*
Y210D01*
X693D01*
Y250D01*
Y170D01*
X720Y250D02*
Y197D01*
X747Y170D01*
X773Y197D01*
Y250D01*
X1875Y325D02*
X1935D01*
Y355D01*
X1925Y365D01*
X1915D01*
X1905Y355D01*
Y325D01*
Y355D01*
X1895Y365D01*
X1885D01*
X1875Y355D01*
Y325D01*
X1935Y385D02*
X1895D01*
Y415D01*
X1905Y425D01*
X1935D01*
X1895Y455D02*
Y475D01*
X1905Y485D01*
X1935D01*
Y455D01*
X1925Y445D01*
X1915Y455D01*
Y485D01*
X1895Y505D02*
X1935Y525D01*
X1895Y545D01*
X1935Y565D02*
Y585D01*
Y575D01*
X1895D01*
Y565D01*
X1990Y150D02*
X1980Y140D01*
Y120D01*
X1990Y110D01*
X2030D01*
X2040Y120D01*
Y140D01*
X2030Y150D01*
X1980Y170D02*
X2040D01*
X2010D01*
X2000Y180D01*
Y200D01*
X2010Y210D01*
X2040D01*
X2000Y240D02*
Y260D01*
X2010Y270D01*
X2040D01*
Y240D01*
X2030Y230D01*
X2020Y240D01*
Y270D01*
X2000Y290D02*
X2040D01*
X2020D01*
X2010Y300D01*
X2000Y310D01*
Y320D01*
X2060Y370D02*
Y380D01*
X2050Y390D01*
X2000D01*
Y360D01*
X2010Y350D01*
X2030D01*
X2040Y360D01*
Y390D01*
Y440D02*
Y420D01*
X2030Y410D01*
X2010D01*
X2000Y420D01*
Y440D01*
X2010Y450D01*
X2020D01*
Y410D01*
X2000Y470D02*
X2040D01*
X2020D01*
X2010Y480D01*
X2000Y490D01*
Y500D01*
X1990Y630D02*
X1980Y620D01*
Y600D01*
X1990Y590D01*
X2030D01*
X2040Y600D01*
Y620D01*
X2030Y630D01*
X2040Y650D02*
Y670D01*
Y660D01*
X2000D01*
Y650D01*
Y700D02*
X2040D01*
X2020D01*
X2010Y710D01*
X2000Y720D01*
Y730D01*
Y800D02*
Y770D01*
X2010Y760D01*
X2030D01*
X2040Y770D01*
Y800D01*
X2000Y820D02*
X2030D01*
X2040Y830D01*
Y860D01*
X2000D01*
X2040Y880D02*
Y900D01*
Y890D01*
X2000D01*
Y880D01*
X1990Y940D02*
X2000D01*
Y930D01*
Y950D01*
Y940D01*
X2030D01*
X2040Y950D01*
X1465Y255D02*
Y175D01*
X1518D01*
X1545Y255D02*
Y202D01*
X1572Y175D01*
X1598Y202D01*
Y255D01*
D11*
X710Y1439D02*
G03*
X710Y1439I-5J0D01*
G01*
D12*
X164Y1250D02*
X206D01*
X1329Y1713D02*
X1393D01*
X1315Y1712D02*
Y1818D01*
X1155D02*
X1315D01*
X1155Y1712D02*
Y1818D01*
Y1712D02*
X1315D01*
X1480Y1714D02*
Y1738D01*
X1594D01*
Y1714D02*
Y1738D01*
X1480Y1714D02*
X1594D01*
X1478Y1653D02*
Y1700D01*
X1605Y1848D02*
Y1872D01*
X224Y1839D02*
X446D01*
Y1511D02*
Y1839D01*
X224Y1511D02*
X446D01*
X224D02*
Y1839D01*
X117Y1816D02*
X210D01*
X965Y1551D02*
Y1598D01*
X705Y1551D02*
X965D01*
X705D02*
Y1598D01*
X793Y1240D02*
X817D01*
X1550Y1077D02*
X1598D01*
X1550D02*
Y1493D01*
X1598D01*
X219Y319D02*
Y631D01*
X451Y319D02*
Y656D01*
X1071Y1099D02*
Y1311D01*
X929Y1076D02*
Y1311D01*
X820Y1035D02*
X860D01*
D13*
X1434Y26D02*
X1401D01*
X1434Y59D01*
Y68D01*
X1426Y76D01*
X1409D01*
X1401Y68D01*
X1451Y26D02*
Y34D01*
X1459D01*
Y26D01*
X1451D01*
X1526D02*
X1493D01*
X1526Y59D01*
Y68D01*
X1518Y76D01*
X1501D01*
X1493Y68D01*
X1543Y34D02*
X1551Y26D01*
X1568D01*
X1576Y34D01*
Y68D01*
X1568Y76D01*
X1551D01*
X1543Y68D01*
Y59D01*
X1551Y51D01*
X1576D01*
X1593Y26D02*
Y59D01*
X1601D01*
X1609Y51D01*
Y26D01*
Y51D01*
X1618Y59D01*
X1626Y51D01*
Y26D01*
X1643D02*
Y59D01*
X1651D01*
X1659Y51D01*
Y26D01*
Y51D01*
X1668Y59D01*
X1676Y51D01*
Y26D01*
D14*
X1500Y1640D02*
Y1620D01*
X1510Y1610D01*
X1520Y1620D01*
Y1640D01*
X1530Y1610D02*
Y1640D01*
X1545D01*
X1550Y1635D01*
Y1625D01*
X1545Y1620D01*
X1530D01*
X1540D02*
X1550Y1610D01*
X413Y1358D02*
Y1333D01*
X418Y1328D01*
X428D01*
X433Y1333D01*
Y1358D01*
X443Y1328D02*
X453D01*
X448D01*
Y1358D01*
X443Y1353D01*
X1338Y1600D02*
Y1630D01*
X1353D01*
X1358Y1625D01*
Y1615D01*
X1353Y1610D01*
X1338D01*
X1348D02*
X1358Y1600D01*
X1372Y1625D02*
Y1620D01*
X1368D01*
X1377D01*
X1372D01*
Y1605D01*
X1377Y1600D01*
X1392D02*
X1402D01*
X1397D01*
Y1630D01*
X1392D01*
X190Y1165D02*
Y1195D01*
X205D01*
X210Y1190D01*
Y1180D01*
X205Y1175D01*
X190D01*
X200D02*
X210Y1165D01*
X220D02*
X235D01*
X240Y1170D01*
X235Y1175D01*
X225D01*
X220Y1180D01*
X225Y1185D01*
X240D01*
X270Y1165D02*
X250D01*
X270Y1185D01*
Y1190D01*
X265Y1195D01*
X255D01*
X250Y1190D01*
X540Y1405D02*
Y1435D01*
X555D01*
X560Y1430D01*
Y1420D01*
X555Y1415D01*
X540D01*
X550D02*
X560Y1405D01*
X570D02*
X585D01*
X590Y1410D01*
X585Y1415D01*
X575D01*
X570Y1420D01*
X575Y1425D01*
X590D01*
X600Y1405D02*
X610D01*
X605D01*
Y1435D01*
X600Y1430D01*
X1405Y1720D02*
X1375D01*
Y1735D01*
X1380Y1740D01*
X1390D01*
X1395Y1735D01*
Y1720D01*
Y1730D02*
X1405Y1740D01*
Y1755D02*
Y1765D01*
X1400Y1770D01*
X1390D01*
X1385Y1765D01*
Y1755D01*
X1390Y1750D01*
X1400D01*
X1405Y1755D01*
X1415Y1780D02*
X1385D01*
Y1795D01*
X1390Y1800D01*
X1400D01*
X1405Y1795D01*
Y1780D01*
X1380Y1815D02*
X1385D01*
Y1810D01*
Y1820D01*
Y1815D01*
X1400D01*
X1405Y1820D01*
X678Y1120D02*
Y1150D01*
X693D01*
X698Y1145D01*
Y1135D01*
X693Y1130D01*
X678D01*
X688D02*
X698Y1120D01*
X708D02*
X717D01*
X713D01*
Y1150D01*
X708D01*
X752Y1140D02*
X737D01*
X732Y1135D01*
Y1125D01*
X737Y1120D01*
X752D01*
X1727Y1710D02*
Y1680D01*
X1712D01*
X1707Y1685D01*
Y1695D01*
X1712Y1700D01*
X1727D01*
X1717D02*
X1707Y1710D01*
X1692D02*
Y1685D01*
Y1695D01*
X1697D01*
X1687D01*
X1692D01*
Y1685D01*
X1687Y1680D01*
X1673D02*
Y1710D01*
X1658D01*
X1653Y1705D01*
Y1700D01*
Y1695D01*
X1658Y1690D01*
X1673D01*
X1638Y1685D02*
Y1690D01*
X1643D01*
X1633D01*
X1638D01*
Y1705D01*
X1633Y1710D01*
X1552Y1916D02*
Y1946D01*
X1567D01*
X1572Y1941D01*
Y1931D01*
X1567Y1926D01*
X1552D01*
X1562D02*
X1572Y1916D01*
X1587D02*
Y1941D01*
Y1931D01*
X1582D01*
X1592D01*
X1587D01*
Y1941D01*
X1592Y1946D01*
X1607D02*
Y1916D01*
X1622D01*
X1627Y1921D01*
Y1926D01*
Y1931D01*
X1622Y1936D01*
X1607D01*
X1637Y1946D02*
Y1916D01*
X1652D01*
X1657Y1921D01*
Y1926D01*
Y1931D01*
X1652Y1936D01*
X1637D01*
X223Y1090D02*
Y1120D01*
X238D01*
X243Y1115D01*
Y1105D01*
X238Y1100D01*
X223D01*
X233D02*
X243Y1090D01*
X258D02*
Y1115D01*
Y1105D01*
X253D01*
X263D01*
X258D01*
Y1115D01*
X263Y1120D01*
X277D02*
Y1090D01*
X292D01*
X297Y1095D01*
Y1100D01*
Y1105D01*
X292Y1110D01*
X277D01*
X322Y1090D02*
Y1120D01*
X307Y1105D01*
X327D01*
X175Y983D02*
X145D01*
Y998D01*
X150Y1003D01*
X160D01*
X165Y998D01*
Y983D01*
Y993D02*
X175Y1003D01*
Y1018D02*
X150D01*
X160D01*
Y1013D01*
Y1023D01*
Y1018D01*
X150D01*
X145Y1023D01*
Y1037D02*
X175D01*
Y1052D01*
X170Y1057D01*
X165D01*
X160D01*
X155Y1052D01*
Y1037D01*
X150Y1067D02*
X145Y1072D01*
Y1082D01*
X150Y1087D01*
X155D01*
X160Y1082D01*
Y1077D01*
Y1082D01*
X165Y1087D01*
X170D01*
X175Y1082D01*
Y1072D01*
X170Y1067D01*
X779Y1323D02*
Y1353D01*
X794D01*
X799Y1348D01*
Y1338D01*
X794Y1333D01*
X779D01*
X789D02*
X799Y1323D01*
X829Y1353D02*
Y1323D01*
X814D01*
X809Y1328D01*
Y1338D01*
X814Y1343D01*
X829D01*
X859Y1353D02*
Y1323D01*
X844D01*
X839Y1328D01*
Y1338D01*
X844Y1343D01*
X859D01*
X790Y920D02*
X760D01*
Y935D01*
X765Y940D01*
X775D01*
X780Y935D01*
Y920D01*
Y930D02*
X790Y940D01*
X765Y970D02*
X760Y965D01*
Y955D01*
X765Y950D01*
X785D01*
X790Y955D01*
Y965D01*
X785Y970D01*
X765Y1000D02*
X760Y995D01*
Y985D01*
X765Y980D01*
X770D01*
X775Y985D01*
Y995D01*
X780Y1000D01*
X785D01*
X790Y995D01*
Y985D01*
X785Y980D01*
X1033Y1935D02*
X1023D01*
X1018Y1930D01*
Y1910D01*
X1023Y1905D01*
X1033D01*
X1038Y1910D01*
Y1930D01*
X1033Y1935D01*
X1048Y1895D02*
Y1925D01*
X1063D01*
X1068Y1920D01*
Y1910D01*
X1063Y1905D01*
X1048D01*
X1083Y1930D02*
Y1925D01*
X1078D01*
X1088D01*
X1083D01*
Y1910D01*
X1088Y1905D01*
X1108D02*
X1118D01*
X1123Y1910D01*
Y1920D01*
X1118Y1925D01*
X1108D01*
X1103Y1920D01*
Y1910D01*
X1108Y1905D01*
X1153Y1925D02*
X1138D01*
X1133Y1920D01*
Y1910D01*
X1138Y1905D01*
X1153D01*
X1168D02*
X1177D01*
X1182Y1910D01*
Y1920D01*
X1177Y1925D01*
X1168D01*
X1163Y1920D01*
Y1910D01*
X1168Y1905D01*
X1192Y1925D02*
Y1910D01*
X1197Y1905D01*
X1212D01*
Y1925D01*
X1222Y1895D02*
Y1925D01*
X1237D01*
X1242Y1920D01*
Y1910D01*
X1237Y1905D01*
X1222D01*
X1252D02*
X1262D01*
X1257D01*
Y1935D01*
X1252D01*
X1292Y1905D02*
X1282D01*
X1277Y1910D01*
Y1920D01*
X1282Y1925D01*
X1292D01*
X1297Y1920D01*
Y1915D01*
X1277D01*
X1307Y1925D02*
Y1905D01*
Y1915D01*
X1312Y1920D01*
X1317Y1925D01*
X1322D01*
X694Y1905D02*
Y1935D01*
X704Y1925D01*
X714Y1935D01*
Y1905D01*
X724D02*
X734D01*
X729D01*
Y1935D01*
X724Y1930D01*
X875Y1195D02*
X905D01*
Y1210D01*
X900Y1215D01*
X880D01*
X875Y1210D01*
Y1195D01*
X885Y1225D02*
X905Y1235D01*
X885Y1245D01*
X875Y1275D02*
X905D01*
Y1260D01*
X900Y1255D01*
X890D01*
X885Y1260D01*
Y1275D01*
X875Y1305D02*
X905D01*
Y1290D01*
X900Y1285D01*
X890D01*
X885Y1290D01*
Y1305D01*
X112Y1913D02*
Y1883D01*
X127D01*
X132Y1888D01*
Y1908D01*
X127Y1913D01*
X112D01*
X142Y1878D02*
X162D01*
X172Y1883D02*
Y1913D01*
X187D01*
X192Y1908D01*
Y1898D01*
X187Y1893D01*
X172D01*
X182D02*
X192Y1883D01*
X217D02*
X207D01*
X202Y1888D01*
Y1898D01*
X207Y1903D01*
X217D01*
X222Y1898D01*
Y1893D01*
X202D01*
X252Y1903D02*
X237D01*
X232Y1898D01*
Y1888D01*
X237Y1883D01*
X252D01*
X267Y1908D02*
Y1903D01*
X262D01*
X272D01*
X267D01*
Y1888D01*
X272Y1883D01*
X287D02*
X297D01*
X292D01*
Y1903D01*
X287D01*
X317Y1883D02*
Y1908D01*
Y1898D01*
X312D01*
X322D01*
X317D01*
Y1908D01*
X322Y1913D01*
X337Y1883D02*
X347D01*
X342D01*
Y1903D01*
X337D01*
X377Y1883D02*
X367D01*
X362Y1888D01*
Y1898D01*
X367Y1903D01*
X377D01*
X382Y1898D01*
Y1893D01*
X362D01*
X392Y1903D02*
Y1883D01*
Y1893D01*
X397Y1898D01*
X402Y1903D01*
X407D01*
X2094Y1050D02*
Y1080D01*
X2079D01*
X2074Y1075D01*
Y1055D01*
X2079Y1050D01*
X2094D01*
X2044Y1080D02*
X2064D01*
X2044Y1060D01*
Y1055D01*
X2049Y1050D01*
X2059D01*
X2064Y1055D01*
X207Y722D02*
Y692D01*
X222D01*
X227Y697D01*
Y717D01*
X222Y722D01*
X207D01*
X237Y692D02*
X247D01*
X242D01*
Y722D01*
X237Y717D01*
X428Y1060D02*
X423Y1065D01*
X413D01*
X408Y1060D01*
Y1040D01*
X413Y1035D01*
X423D01*
X428Y1040D01*
X443Y1035D02*
Y1060D01*
Y1050D01*
X438D01*
X448D01*
X443D01*
Y1060D01*
X448Y1065D01*
X462D02*
Y1035D01*
X477D01*
X482Y1040D01*
Y1045D01*
Y1050D01*
X477Y1055D01*
X462D01*
X492Y1060D02*
X497Y1065D01*
X507D01*
X512Y1060D01*
Y1055D01*
X507Y1050D01*
X502D01*
X507D01*
X512Y1045D01*
Y1040D01*
X507Y1035D01*
X497D01*
X492Y1040D01*
X130Y1300D02*
X125Y1295D01*
Y1285D01*
X130Y1280D01*
X150D01*
X155Y1285D01*
Y1295D01*
X150Y1300D01*
X125Y1330D02*
X155D01*
Y1315D01*
X150Y1310D01*
X140D01*
X135Y1315D01*
Y1330D01*
X125Y1360D02*
X155D01*
Y1345D01*
X150Y1340D01*
X140D01*
X135Y1345D01*
Y1360D01*
X1495Y1875D02*
X1500Y1870D01*
X1510D01*
X1515Y1875D01*
Y1895D01*
X1510Y1900D01*
X1500D01*
X1495Y1895D01*
X1465Y1880D02*
X1480D01*
X1485Y1885D01*
Y1895D01*
X1480Y1900D01*
X1465D01*
X1450D02*
X1440D01*
X1435Y1895D01*
Y1885D01*
X1440Y1880D01*
X1450D01*
X1455Y1885D01*
Y1895D01*
X1450Y1900D01*
X1425D02*
Y1880D01*
X1420D01*
X1415Y1885D01*
Y1900D01*
Y1885D01*
X1410Y1880D01*
X1405Y1885D01*
Y1900D01*
X1395Y1910D02*
Y1880D01*
X1380D01*
X1375Y1885D01*
Y1895D01*
X1380Y1900D01*
X1395D01*
M02*
