G04*
G04 #@! TF.GenerationSoftware,Altium Limited,Altium Designer,22.2.1 (43)*
G04*
G04 Layer_Color=16711935*
%FSLAX23Y23*%
%MOIN*%
G70*
G04*
G04 #@! TF.SameCoordinates,8410DD60-BE5F-4665-B969-63B9D7D5DCD7*
G04*
G04*
G04 #@! TF.FilePolarity,Negative*
G04*
G01*
G75*
%ADD51C,0.087*%
%ADD52R,0.073X0.073*%
%ADD53C,0.073*%
%ADD54R,0.058X0.058*%
%ADD55C,0.058*%
%ADD56R,0.055X0.055*%
%ADD57C,0.055*%
%ADD58C,0.070*%
%ADD59R,0.070X0.070*%
%ADD60C,0.030*%
%ADD77R,0.055X0.036*%
%ADD78R,0.055X0.038*%
%ADD79R,0.055X0.039*%
%ADD80R,0.382X0.156*%
D51*
X2135Y1205D02*
D03*
X2285D02*
D03*
Y865D02*
D03*
X2135D02*
D03*
D52*
X990Y225D02*
D03*
D53*
X1090Y325D02*
D03*
X990Y425D02*
D03*
X1090Y525D02*
D03*
X990Y625D02*
D03*
X1090Y725D02*
D03*
X990Y825D02*
D03*
X1090Y925D02*
D03*
X1690Y950D02*
D03*
Y800D02*
D03*
Y650D02*
D03*
Y500D02*
D03*
Y350D02*
D03*
Y200D02*
D03*
D54*
X1830Y1760D02*
D03*
D55*
X2027D02*
D03*
D56*
X585Y750D02*
D03*
X635Y1563D02*
D03*
D57*
X585Y553D02*
D03*
X635Y1760D02*
D03*
D58*
X210Y128D02*
D03*
D59*
Y915D02*
D03*
D60*
X405Y845D02*
D03*
X248Y998D02*
D03*
X1680Y1610D02*
D03*
X1460Y1585D02*
D03*
X315Y1260D02*
D03*
X180Y1350D02*
D03*
X935Y1365D02*
D03*
X814Y1150D02*
D03*
X825Y1370D02*
D03*
X680Y1465D02*
D03*
X670Y660D02*
D03*
X1005Y1590D02*
D03*
X1110Y1655D02*
D03*
X1055Y1510D02*
D03*
D77*
X2132Y1055D02*
D03*
Y1015D02*
D03*
D78*
Y975D02*
D03*
Y1095D02*
D03*
D79*
Y927D02*
D03*
Y1143D02*
D03*
D80*
X575Y1029D02*
D03*
Y1275D02*
D03*
M02*
