G04*
G04 #@! TF.GenerationSoftware,Altium Limited,Altium Designer,22.2.1 (43)*
G04*
G04 Layer_Color=2752767*
%FSLAX23Y23*%
%MOIN*%
G70*
G04*
G04 #@! TF.SameCoordinates,8410DD60-BE5F-4665-B969-63B9D7D5DCD7*
G04*
G04*
G04 #@! TF.FilePolarity,Positive*
G04*
G01*
G75*
%ADD83C,0.002*%
%ADD84C,0.003*%
D83*
X2127Y1197D02*
Y1213D01*
X2143D01*
Y1197D01*
X2127D01*
X2277D02*
Y1213D01*
X2293D01*
Y1197D01*
X2277D01*
Y857D02*
Y873D01*
X2293D01*
Y857D01*
X2277D01*
X2127D02*
Y873D01*
X2143D01*
Y857D01*
X2127D01*
X1830Y1752D02*
X1822Y1768D01*
X1838D01*
X1830Y1752D01*
X2027D02*
X2019Y1768D01*
X2035D01*
X2027Y1752D01*
X585Y742D02*
X589Y746D01*
X593D01*
X589Y750D01*
X593Y754D01*
X589D01*
X585Y758D01*
X581Y754D01*
X577D01*
X581Y750D01*
X577Y746D01*
X581D01*
X585Y742D01*
Y545D02*
X589Y549D01*
X593D01*
X589Y553D01*
X593Y557D01*
X589D01*
X585Y561D01*
X581Y557D01*
X577D01*
X581Y553D01*
X577Y549D01*
X581D01*
X585Y545D01*
X635Y1555D02*
X639Y1559D01*
X643D01*
X639Y1563D01*
X643Y1567D01*
X639D01*
X635Y1571D01*
X631Y1567D01*
X627D01*
X631Y1563D01*
X627Y1559D01*
X631D01*
X635Y1555D01*
Y1752D02*
X639Y1756D01*
X643D01*
X639Y1760D01*
X643Y1764D01*
X639D01*
X635Y1768D01*
X631Y1764D01*
X627D01*
X631Y1760D01*
X627Y1756D01*
X631D01*
X635Y1752D01*
X202Y120D02*
X206Y128D01*
X202Y136D01*
X210Y132D01*
X218Y136D01*
X214Y128D01*
X218Y120D01*
X210Y124D01*
X202Y120D01*
Y907D02*
X206Y915D01*
X202Y923D01*
X210Y919D01*
X218Y923D01*
X214Y915D01*
X218Y907D01*
X210Y911D01*
X202Y907D01*
X401Y841D02*
Y837D01*
X409D01*
Y841D01*
X413D01*
Y849D01*
X409D01*
Y853D01*
X401D01*
Y849D01*
X397D01*
Y841D01*
X401D01*
X243Y993D02*
Y989D01*
X252D01*
Y993D01*
X255D01*
Y1002D01*
X252D01*
Y1005D01*
X243D01*
Y1002D01*
X240D01*
Y993D01*
X243D01*
X1676Y1606D02*
Y1602D01*
X1684D01*
Y1606D01*
X1688D01*
Y1614D01*
X1684D01*
Y1618D01*
X1676D01*
Y1614D01*
X1672D01*
Y1606D01*
X1676D01*
X1456Y1581D02*
Y1577D01*
X1464D01*
Y1581D01*
X1468D01*
Y1589D01*
X1464D01*
Y1593D01*
X1456D01*
Y1589D01*
X1452D01*
Y1581D01*
X1456D01*
X311Y1256D02*
Y1252D01*
X319D01*
Y1256D01*
X323D01*
Y1264D01*
X319D01*
Y1268D01*
X311D01*
Y1264D01*
X307D01*
Y1256D01*
X311D01*
X176Y1346D02*
Y1342D01*
X184D01*
Y1346D01*
X188D01*
Y1354D01*
X184D01*
Y1358D01*
X176D01*
Y1354D01*
X172D01*
Y1346D01*
X176D01*
X931Y1361D02*
Y1357D01*
X939D01*
Y1361D01*
X943D01*
Y1369D01*
X939D01*
Y1373D01*
X931D01*
Y1369D01*
X927D01*
Y1361D01*
X931D01*
X810Y1146D02*
Y1142D01*
X818D01*
Y1146D01*
X822D01*
Y1154D01*
X818D01*
Y1158D01*
X810D01*
Y1154D01*
X806D01*
Y1146D01*
X810D01*
X821Y1366D02*
Y1362D01*
X829D01*
Y1366D01*
X833D01*
Y1374D01*
X829D01*
Y1378D01*
X821D01*
Y1374D01*
X817D01*
Y1366D01*
X821D01*
X676Y1461D02*
Y1457D01*
X684D01*
Y1461D01*
X688D01*
Y1469D01*
X684D01*
Y1473D01*
X676D01*
Y1469D01*
X672D01*
Y1461D01*
X676D01*
X666Y656D02*
Y652D01*
X674D01*
Y656D01*
X678D01*
Y664D01*
X674D01*
Y668D01*
X666D01*
Y664D01*
X662D01*
Y656D01*
X666D01*
X1001Y1586D02*
Y1582D01*
X1009D01*
Y1586D01*
X1013D01*
Y1594D01*
X1009D01*
Y1598D01*
X1001D01*
Y1594D01*
X997D01*
Y1586D01*
X1001D01*
X1106Y1651D02*
Y1647D01*
X1114D01*
Y1651D01*
X1118D01*
Y1659D01*
X1114D01*
Y1663D01*
X1106D01*
Y1659D01*
X1102D01*
Y1651D01*
X1106D01*
X1051Y1506D02*
Y1502D01*
X1059D01*
Y1506D01*
X1063D01*
Y1514D01*
X1059D01*
Y1518D01*
X1051D01*
Y1514D01*
X1047D01*
Y1506D01*
X1051D01*
D84*
X998Y225D02*
G03*
X998Y225I-8J0D01*
G01*
X1098Y325D02*
G03*
X1098Y325I-8J0D01*
G01*
X998Y425D02*
G03*
X998Y425I-8J0D01*
G01*
X1098Y525D02*
G03*
X1098Y525I-8J0D01*
G01*
X998Y625D02*
G03*
X998Y625I-8J0D01*
G01*
X1098Y725D02*
G03*
X1098Y725I-8J0D01*
G01*
X998Y825D02*
G03*
X998Y825I-8J0D01*
G01*
X1098Y925D02*
G03*
X1098Y925I-8J0D01*
G01*
X1698Y950D02*
G03*
X1698Y950I-8J0D01*
G01*
Y800D02*
G03*
X1698Y800I-8J0D01*
G01*
Y650D02*
G03*
X1698Y650I-8J0D01*
G01*
Y500D02*
G03*
X1698Y500I-8J0D01*
G01*
Y350D02*
G03*
X1698Y350I-8J0D01*
G01*
Y200D02*
G03*
X1698Y200I-8J0D01*
G01*
M02*
