G04*
G04 #@! TF.GenerationSoftware,Altium Limited,Altium Designer,22.2.1 (43)*
G04*
G04 Layer_Color=255*
%FSLAX23Y23*%
%MOIN*%
G70*
G04*
G04 #@! TF.SameCoordinates,8410DD60-BE5F-4665-B969-63B9D7D5DCD7*
G04*
G04*
G04 #@! TF.FilePolarity,Positive*
G04*
G01*
G75*
%ADD15R,0.058X0.024*%
%ADD16R,0.065X0.026*%
%ADD17R,0.030X0.024*%
%ADD18R,0.024X0.047*%
%ADD19R,0.031X0.037*%
%ADD20R,0.024X0.030*%
%ADD21R,0.031X0.039*%
%ADD22R,0.061X0.024*%
%ADD23R,0.093X0.053*%
%ADD24R,0.039X0.108*%
%ADD25R,0.209X0.256*%
%ADD26R,0.037X0.031*%
%ADD27R,0.384X0.480*%
%ADD28R,0.138X0.063*%
%ADD29R,0.122X0.087*%
%ADD30R,0.085X0.087*%
%ADD31R,0.036X0.057*%
%ADD32R,0.016X0.025*%
%ADD33R,0.025X0.016*%
%ADD34R,0.055X0.039*%
%ADD62C,0.079*%
%ADD63R,0.065X0.065*%
%ADD64C,0.065*%
%ADD65R,0.050X0.050*%
%ADD66C,0.050*%
%ADD67R,0.047X0.047*%
%ADD68C,0.047*%
%ADD69C,0.062*%
%ADD70R,0.062X0.062*%
D15*
X185Y1211D02*
D03*
Y1289D02*
D03*
D16*
X1109Y1740D02*
D03*
Y1790D02*
D03*
X1361D02*
D03*
Y1740D02*
D03*
D17*
X1403Y1660D02*
D03*
X1360D02*
D03*
X563Y1345D02*
D03*
X607D02*
D03*
X717Y1060D02*
D03*
X673D02*
D03*
D18*
X1500Y1677D02*
D03*
X1537D02*
D03*
X1575D02*
D03*
Y1775D02*
D03*
X1500D02*
D03*
D19*
X1636Y1860D02*
D03*
X1574D02*
D03*
D20*
X1640Y1782D02*
D03*
Y1738D02*
D03*
X1435Y1787D02*
D03*
Y1743D02*
D03*
D21*
X1493Y1855D02*
D03*
X1437D02*
D03*
D22*
X459Y1275D02*
D03*
Y1225D02*
D03*
Y1175D02*
D03*
Y1125D02*
D03*
X671D02*
D03*
Y1175D02*
D03*
Y1275D02*
D03*
D23*
X164Y1775D02*
D03*
Y1575D02*
D03*
X506D02*
D03*
Y1775D02*
D03*
D24*
X745Y1482D02*
D03*
X925D02*
D03*
D25*
X835Y1740D02*
D03*
D26*
X805Y1209D02*
D03*
Y1271D02*
D03*
D27*
X1805Y1285D02*
D03*
D28*
X1400Y1385D02*
D03*
Y1185D02*
D03*
D29*
X335Y337D02*
D03*
Y613D02*
D03*
D30*
X1000Y1292D02*
D03*
Y1118D02*
D03*
D31*
X418Y995D02*
D03*
X482D02*
D03*
D32*
X200Y1046D02*
D03*
Y1014D02*
D03*
D33*
X279Y1065D02*
D03*
X311D02*
D03*
X256Y1145D02*
D03*
X224D02*
D03*
D34*
X840Y1072D02*
D03*
Y998D02*
D03*
D62*
X2135Y1205D02*
D03*
X2285D02*
D03*
Y865D02*
D03*
X2135D02*
D03*
D63*
X990Y225D02*
D03*
D64*
X1090Y325D02*
D03*
X990Y425D02*
D03*
X1090Y525D02*
D03*
X990Y625D02*
D03*
X1090Y725D02*
D03*
X990Y825D02*
D03*
X1090Y925D02*
D03*
X1690Y950D02*
D03*
Y800D02*
D03*
Y650D02*
D03*
Y500D02*
D03*
Y350D02*
D03*
Y200D02*
D03*
D65*
X1830Y1760D02*
D03*
D66*
X2027D02*
D03*
D67*
X585Y750D02*
D03*
X635Y1563D02*
D03*
D68*
X585Y553D02*
D03*
X635Y1760D02*
D03*
D69*
X210Y128D02*
D03*
D70*
Y915D02*
D03*
M02*
