G04*
G04 #@! TF.GenerationSoftware,Altium Limited,Altium Designer,22.2.1 (43)*
G04*
G04 Layer_Color=16711935*
%FSLAX23Y23*%
%MOIN*%
G70*
G04*
G04 #@! TF.SameCoordinates,8410DD60-BE5F-4665-B969-63B9D7D5DCD7*
G04*
G04*
G04 #@! TF.FilePolarity,Positive*
G04*
G01*
G75*
%ADD12C,0.008*%
G36*
X1682Y1275D02*
X1682Y1275D01*
X1682Y1274D01*
X1682Y1273D01*
X1682Y1272D01*
X1682Y1272D01*
Y1272D01*
X1682Y1272D01*
Y1272D01*
X1682Y1271D01*
X1681Y1271D01*
X1681Y1271D01*
X1681Y1270D01*
X1681Y1269D01*
X1680Y1269D01*
X1680Y1268D01*
X1680Y1268D01*
X1680Y1268D01*
X1680Y1268D01*
X1680Y1268D01*
X1679Y1267D01*
X1679Y1267D01*
X1678Y1267D01*
X1677Y1266D01*
X1676Y1266D01*
X1676Y1265D01*
X1676D01*
X1675Y1265D01*
X1675Y1265D01*
X1675Y1265D01*
X1675Y1265D01*
X1675Y1265D01*
X1674Y1265D01*
X1674Y1265D01*
X1673Y1265D01*
X1673Y1265D01*
X1672Y1264D01*
X1671Y1264D01*
X1670Y1264D01*
X1670D01*
X1669D01*
X1669D01*
X1669D01*
X1669Y1264D01*
X1669D01*
X1668Y1264D01*
X1667Y1264D01*
X1666Y1264D01*
X1665Y1265D01*
X1664Y1265D01*
X1664D01*
X1664Y1265D01*
X1664Y1265D01*
X1664Y1265D01*
X1664Y1265D01*
X1663Y1265D01*
X1663Y1266D01*
X1662Y1266D01*
X1661Y1266D01*
X1661Y1267D01*
X1661Y1267D01*
X1661Y1267D01*
X1660Y1267D01*
X1660Y1267D01*
X1660Y1268D01*
X1659Y1268D01*
X1659Y1268D01*
X1659Y1269D01*
X1658Y1269D01*
X1658Y1269D01*
X1658Y1269D01*
X1658Y1270D01*
X1658Y1270D01*
X1658Y1271D01*
X1657Y1271D01*
X1657Y1272D01*
Y1272D01*
X1657Y1272D01*
X1657Y1272D01*
X1657Y1273D01*
X1657Y1273D01*
X1657Y1274D01*
X1657Y1274D01*
X1657Y1275D01*
X1657Y1276D01*
Y1285D01*
X1682D01*
Y1275D01*
D02*
G37*
G36*
X1658Y1261D02*
X1658Y1261D01*
X1658Y1261D01*
X1659Y1261D01*
X1659Y1261D01*
X1659D01*
X1659Y1261D01*
X1659Y1261D01*
X1660Y1261D01*
X1660Y1260D01*
X1661Y1260D01*
X1661Y1260D01*
X1662Y1259D01*
X1662Y1259D01*
X1662D01*
X1662Y1259D01*
X1663Y1259D01*
X1663Y1258D01*
X1663Y1258D01*
X1664Y1257D01*
X1665Y1257D01*
X1665Y1256D01*
X1666Y1255D01*
X1666Y1255D01*
X1666Y1255D01*
X1666Y1254D01*
X1667Y1254D01*
X1667Y1254D01*
X1667Y1253D01*
X1668Y1253D01*
X1668Y1253D01*
X1669Y1252D01*
X1670Y1251D01*
X1670Y1250D01*
X1671Y1250D01*
X1671Y1250D01*
X1671Y1249D01*
X1672D01*
X1672Y1249D01*
X1672Y1249D01*
X1672Y1249D01*
X1672Y1249D01*
X1673Y1249D01*
X1673Y1248D01*
X1674Y1248D01*
X1675Y1248D01*
X1675Y1248D01*
X1675D01*
X1675D01*
X1676Y1248D01*
X1676Y1248D01*
X1676Y1248D01*
X1677Y1248D01*
X1677Y1248D01*
X1678Y1249D01*
X1678Y1249D01*
X1678Y1249D01*
X1679Y1249D01*
X1679Y1250D01*
X1679Y1250D01*
X1679Y1251D01*
X1679Y1251D01*
X1680Y1252D01*
X1680Y1253D01*
Y1253D01*
X1680Y1253D01*
X1680Y1253D01*
X1679Y1254D01*
X1679Y1254D01*
X1679Y1255D01*
X1679Y1256D01*
X1678Y1256D01*
X1678Y1256D01*
X1678Y1256D01*
X1678Y1257D01*
X1677Y1257D01*
X1677Y1257D01*
X1676Y1257D01*
X1675Y1257D01*
X1675Y1258D01*
X1675Y1261D01*
X1675D01*
X1675Y1261D01*
X1675D01*
X1675Y1261D01*
X1676Y1261D01*
X1676Y1261D01*
X1676Y1260D01*
X1677Y1260D01*
X1678Y1260D01*
X1679Y1260D01*
X1679Y1259D01*
X1679Y1259D01*
X1680Y1259D01*
X1680Y1258D01*
X1680Y1258D01*
X1680Y1258D01*
X1680Y1258D01*
X1681Y1258D01*
X1681Y1258D01*
X1681Y1257D01*
X1681Y1257D01*
X1681Y1257D01*
X1681Y1256D01*
X1682Y1256D01*
X1682Y1255D01*
X1682Y1255D01*
X1682Y1254D01*
X1682Y1254D01*
X1682Y1253D01*
X1682Y1253D01*
Y1252D01*
X1682Y1252D01*
X1682Y1252D01*
X1682Y1251D01*
X1682Y1251D01*
X1682Y1250D01*
X1682Y1250D01*
X1681Y1249D01*
X1681Y1248D01*
X1681Y1248D01*
X1680Y1247D01*
X1680Y1247D01*
X1680Y1247D01*
X1680Y1247D01*
X1680Y1247D01*
X1680Y1246D01*
X1680Y1246D01*
X1679Y1246D01*
X1679Y1246D01*
X1679Y1246D01*
X1678Y1245D01*
X1677Y1245D01*
X1677Y1245D01*
X1676Y1245D01*
X1676Y1245D01*
X1675Y1245D01*
X1675D01*
X1675D01*
X1675Y1245D01*
X1674Y1245D01*
X1674Y1245D01*
X1673Y1245D01*
X1673Y1245D01*
X1672Y1245D01*
X1672Y1245D01*
X1672Y1245D01*
X1672Y1246D01*
X1671Y1246D01*
X1671Y1246D01*
X1670Y1246D01*
X1670Y1247D01*
X1669Y1247D01*
X1669Y1247D01*
X1669Y1248D01*
X1669Y1248D01*
X1668Y1248D01*
X1668Y1248D01*
X1668Y1248D01*
X1668Y1249D01*
X1667Y1249D01*
X1667Y1250D01*
X1667Y1250D01*
X1666Y1250D01*
X1666Y1251D01*
X1665Y1252D01*
X1665Y1252D01*
X1665Y1252D01*
X1665Y1252D01*
X1664Y1252D01*
X1664Y1253D01*
X1664Y1253D01*
X1664Y1253D01*
X1663Y1254D01*
X1663Y1254D01*
X1662Y1255D01*
X1662Y1255D01*
X1662Y1256D01*
X1661Y1256D01*
X1661Y1256D01*
X1661Y1256D01*
X1661Y1256D01*
X1661Y1256D01*
X1661Y1256D01*
X1660Y1257D01*
X1660Y1257D01*
Y1245D01*
X1657D01*
Y1261D01*
X1657D01*
X1657D01*
X1657D01*
X1658Y1261D01*
D02*
G37*
%LPC*%
G36*
X1679Y1282D02*
X1660D01*
Y1276D01*
X1660Y1275D01*
X1660Y1275D01*
X1660Y1274D01*
X1660Y1274D01*
X1660Y1273D01*
X1660Y1272D01*
X1660Y1272D01*
X1660Y1272D01*
X1660Y1272D01*
X1661Y1272D01*
X1661Y1271D01*
X1661Y1271D01*
X1661Y1270D01*
X1662Y1270D01*
X1662Y1270D01*
X1662Y1270D01*
X1662Y1270D01*
X1662Y1269D01*
X1663Y1269D01*
X1663Y1269D01*
X1664Y1269D01*
X1665Y1268D01*
X1665D01*
X1665Y1268D01*
X1665Y1268D01*
X1665Y1268D01*
X1665Y1268D01*
X1666Y1268D01*
X1666Y1268D01*
X1666Y1268D01*
X1667Y1268D01*
X1668Y1268D01*
X1669Y1268D01*
X1670Y1268D01*
X1670D01*
X1670D01*
X1670D01*
X1670Y1268D01*
X1671D01*
X1671Y1268D01*
X1671Y1268D01*
X1672Y1268D01*
X1673Y1268D01*
X1674Y1268D01*
X1675Y1268D01*
X1675Y1269D01*
X1676Y1269D01*
X1676D01*
X1676Y1269D01*
X1676Y1269D01*
X1676Y1269D01*
X1676Y1269D01*
X1677Y1270D01*
X1677Y1270D01*
X1678Y1271D01*
X1678Y1271D01*
X1678Y1272D01*
X1679Y1272D01*
X1679Y1272D01*
X1679Y1273D01*
X1679Y1273D01*
X1679Y1274D01*
X1679Y1274D01*
X1679Y1275D01*
Y1275D01*
X1679Y1276D01*
Y1282D01*
D02*
G37*
%LPD*%
D12*
X2001Y1041D02*
Y1529D01*
X1328Y1041D02*
X2001D01*
X1328D02*
Y1529D01*
X2001D01*
M02*
