G04*
G04 #@! TF.GenerationSoftware,Altium Limited,Altium Designer,22.2.1 (43)*
G04*
G04 Layer_Color=16711935*
%FSLAX23Y23*%
%MOIN*%
G70*
G04*
G04 #@! TF.SameCoordinates,8410DD60-BE5F-4665-B969-63B9D7D5DCD7*
G04*
G04*
G04 #@! TF.FilePolarity,Positive*
G04*
G01*
G75*
%ADD10C,0.010*%
%ADD14C,0.005*%
%ADD81C,0.004*%
D10*
X644Y1102D02*
Y1298D01*
X486Y1102D02*
X644D01*
X486D02*
Y1298D01*
X644D01*
D14*
X382Y1343D02*
X768D01*
X382Y961D02*
X768D01*
X575Y1029D02*
Y1275D01*
D81*
X2125Y1760D02*
G03*
X2125Y1760I-197J0D01*
G01*
X836Y652D02*
G03*
X836Y652I-251J0D01*
G01*
X886Y1662D02*
G03*
X886Y1662I-251J0D01*
G01*
X2120Y859D02*
Y1211D01*
Y859D02*
X2387D01*
Y1211D01*
X2120D02*
X2387D01*
X160Y1211D02*
Y1289D01*
X210D01*
Y1211D02*
Y1289D01*
X160Y1211D02*
X210D01*
X927Y152D02*
X1853D01*
X927D02*
Y998D01*
X1853D01*
Y152D02*
Y998D01*
X1272Y1712D02*
X1322Y1762D01*
Y1712D02*
Y1818D01*
X1148D02*
X1322D01*
X1148Y1712D02*
Y1818D01*
Y1712D02*
X1322D01*
X1362Y1650D02*
Y1670D01*
Y1650D02*
X1401D01*
Y1670D01*
X1362D02*
X1401D01*
X1480Y1694D02*
Y1757D01*
X1594D01*
Y1694D02*
Y1757D01*
X1480Y1694D02*
X1594D01*
X1480Y1732D02*
X1518Y1694D01*
X1574Y1844D02*
X1636D01*
X1574D02*
Y1876D01*
X1636D01*
Y1844D02*
Y1876D01*
X1650Y1740D02*
Y1780D01*
X1630Y1740D02*
X1650D01*
X1630D02*
Y1780D01*
X1650D01*
X1434Y1839D02*
X1496D01*
X1434D02*
Y1871D01*
X1496D01*
Y1839D02*
Y1871D01*
X210Y1839D02*
X460D01*
Y1511D02*
Y1839D01*
X210Y1511D02*
X460D01*
X210D02*
Y1839D01*
Y1638D02*
X411Y1839D01*
X964Y1568D02*
Y1808D01*
X706Y1808D02*
X964D01*
X706Y1568D02*
Y1808D01*
X706Y1568D02*
X964D01*
X789Y1271D02*
X821D01*
X789Y1209D02*
Y1271D01*
Y1209D02*
X821D01*
Y1271D01*
X408Y631D02*
X451Y588D01*
X219Y631D02*
X451D01*
X219Y319D02*
Y631D01*
Y319D02*
X451D01*
Y631D01*
X210Y128D02*
Y396D01*
Y646D02*
Y915D01*
X143Y579D02*
X210Y646D01*
X143D02*
X277D01*
Y396D02*
Y646D01*
X143Y396D02*
X277D01*
X143D02*
Y646D01*
X1425Y1745D02*
X1445D01*
Y1785D01*
X1425D02*
X1445D01*
X1425Y1745D02*
Y1785D01*
X605Y1335D02*
Y1355D01*
X565D02*
X605D01*
X565Y1335D02*
Y1355D01*
Y1335D02*
X605D01*
X929Y1141D02*
X971Y1099D01*
X929D02*
X1071D01*
Y1311D01*
X929D02*
X1071D01*
X929Y1099D02*
Y1311D01*
X194Y1018D02*
X206D01*
Y1042D01*
X194D02*
X206D01*
X194Y1018D02*
Y1042D01*
X307Y1059D02*
Y1071D01*
X283D02*
X307D01*
X283Y1059D02*
Y1071D01*
Y1059D02*
X307D01*
X816Y996D02*
X864D01*
Y1074D01*
X816D02*
X864D01*
X816Y996D02*
Y1074D01*
X675Y1050D02*
Y1070D01*
Y1050D02*
X715D01*
Y1070D01*
X675D02*
X715D01*
X228Y1139D02*
Y1151D01*
Y1139D02*
X252D01*
Y1151D01*
X228D02*
X252D01*
M02*
