G04*
G04 #@! TF.GenerationSoftware,Altium Limited,Altium Designer,22.2.1 (43)*
G04*
G04 Layer_Color=32896*
%FSLAX23Y23*%
%MOIN*%
G70*
G04*
G04 #@! TF.SameCoordinates,8410DD60-BE5F-4665-B969-63B9D7D5DCD7*
G04*
G04*
G04 #@! TF.FilePolarity,Positive*
G04*
G01*
G75*
%ADD10C,0.010*%
%ADD12C,0.008*%
%ADD14C,0.005*%
%ADD81C,0.004*%
D10*
X2115Y755D02*
X2135D01*
X2125D01*
Y705D01*
X2135Y695D01*
X2145D01*
X2155Y705D01*
X2095Y745D02*
X2085Y755D01*
X2065D01*
X2055Y745D01*
Y735D01*
X2075Y715D01*
Y705D02*
Y695D01*
D12*
X911Y225D02*
G03*
X907Y225I-2J0D01*
G01*
D02*
G03*
X911Y225I2J0D01*
G01*
D02*
G03*
X907Y225I-2J0D01*
G01*
X2125Y1760D02*
G03*
X2125Y1760I-197J0D01*
G01*
X836Y652D02*
G03*
X836Y652I-251J0D01*
G01*
X886Y1662D02*
G03*
X886Y1662I-251J0D01*
G01*
X2340Y1211D02*
X2387D01*
Y859D02*
Y1211D01*
X2340Y859D02*
X2387D01*
X927Y152D02*
X1853D01*
X927D02*
Y998D01*
X1853D01*
Y152D02*
Y998D01*
X210Y172D02*
Y396D01*
Y646D02*
Y870D01*
X143Y579D02*
X210Y646D01*
X143D02*
X277D01*
Y396D02*
Y646D01*
X143Y396D02*
X277D01*
X143D02*
Y646D01*
D14*
X768Y961D02*
Y1343D01*
X382Y961D02*
Y1343D01*
X1490Y1097D02*
Y1068D01*
X1470D01*
X1460Y1063D02*
X1440D01*
X1410Y1087D02*
X1425D01*
X1430Y1082D01*
Y1073D01*
X1425Y1068D01*
X1410D01*
X1395D02*
X1385D01*
X1380Y1073D01*
Y1082D01*
X1385Y1087D01*
X1395D01*
X1400Y1082D01*
Y1073D01*
X1395Y1068D01*
X1370D02*
X1360D01*
X1365D01*
Y1087D01*
X1370D01*
X1345Y1068D02*
X1335D01*
X1340D01*
Y1097D01*
X1345D01*
X1315Y1068D02*
Y1092D01*
Y1082D01*
X1320D01*
X1310D01*
X1315D01*
Y1092D01*
X1310Y1097D01*
X1290Y1068D02*
X1280D01*
X1275Y1073D01*
Y1082D01*
X1280Y1087D01*
X1290D01*
X1295Y1082D01*
Y1073D01*
X1290Y1068D01*
X1265Y1087D02*
Y1068D01*
Y1078D01*
X1260Y1082D01*
X1255Y1087D01*
X1250D01*
X1235Y1068D02*
Y1087D01*
X1230D01*
X1225Y1082D01*
Y1068D01*
Y1082D01*
X1220Y1087D01*
X1215Y1082D01*
Y1068D01*
X1190D02*
X1200D01*
X1205Y1073D01*
Y1082D01*
X1200Y1087D01*
X1190D01*
X1185Y1082D01*
Y1078D01*
X1205D01*
X1175Y1087D02*
Y1068D01*
Y1078D01*
X1170Y1082D01*
X1165Y1087D01*
X1160D01*
X153Y-6D02*
X173Y-6D01*
X173Y-1D01*
X152Y19D01*
X152Y24D01*
X172Y24D01*
X197Y24D02*
X187Y24D01*
X182Y19D01*
X183Y9D01*
X188Y4D01*
X198Y4D01*
X203Y9D01*
X202Y14D01*
X183Y14D01*
X212Y24D02*
X213Y4D01*
X228Y4D01*
X233Y9D01*
X232Y24D01*
X257Y25D02*
X247Y24D01*
X242Y19D01*
X243Y9D01*
X248Y4D01*
X258Y5D01*
X263Y10D01*
X262Y15D01*
X242Y14D01*
X273Y5D02*
X272Y25D01*
X272Y15D01*
X278Y10D01*
X283Y5D01*
X288Y5D01*
X333Y-5D02*
X332Y25D01*
X347Y25D01*
X352Y20D01*
X353Y0D01*
X348Y-5D01*
X333Y-5D01*
X362Y25D02*
X372Y26D01*
X367Y25D01*
X368Y5D01*
X363Y5D01*
X392Y26D02*
X402Y26D01*
X407Y21D01*
X407Y11D01*
X403Y6D01*
X393Y6D01*
X387Y11D01*
X387Y21D01*
X392Y26D01*
X438Y-4D02*
X437Y26D01*
X422Y26D01*
X417Y21D01*
X417Y11D01*
X423Y6D01*
X437Y6D01*
X462Y26D02*
X452Y26D01*
X447Y21D01*
X447Y11D01*
X452Y6D01*
X462Y6D01*
X467Y11D01*
X467Y16D01*
X447Y16D01*
X401Y1426D02*
Y1396D01*
X381D01*
X371D02*
X361D01*
X366D01*
Y1426D01*
X371Y1421D01*
X1796Y2028D02*
X1801Y2033D01*
X1811D01*
X1816Y2028D01*
Y2008D01*
X1811Y2003D01*
X1801D01*
X1796Y2008D01*
X1781Y2003D02*
X1771D01*
X1766Y2008D01*
Y2018D01*
X1771Y2023D01*
X1781D01*
X1786Y2018D01*
Y2008D01*
X1781Y2003D01*
X1756Y2023D02*
Y2008D01*
X1751Y2003D01*
X1736D01*
Y2023D01*
X1721Y2028D02*
Y2023D01*
X1726D01*
X1716D01*
X1721D01*
Y2008D01*
X1716Y2003D01*
X832Y973D02*
X837Y978D01*
X847D01*
X852Y973D01*
Y953D01*
X847Y948D01*
X837D01*
X832Y953D01*
X822Y948D02*
X812D01*
X817D01*
Y968D01*
X822D01*
X797Y948D02*
Y968D01*
X782D01*
X777Y963D01*
Y948D01*
X747D02*
X767D01*
X747Y968D01*
Y973D01*
X752Y978D01*
X762D01*
X767Y973D01*
X882Y1983D02*
X887Y1988D01*
X897D01*
X902Y1983D01*
Y1963D01*
X897Y1958D01*
X887D01*
X882Y1963D01*
X872Y1958D02*
X862D01*
X867D01*
Y1978D01*
X872D01*
X847Y1958D02*
Y1978D01*
X832D01*
X827Y1973D01*
Y1958D01*
X817D02*
X807D01*
X812D01*
Y1988D01*
X817Y1983D01*
D81*
X2084Y1055D02*
G03*
X2088Y1055I2J0D01*
G01*
D02*
G03*
X2084Y1055I-2J0D01*
G01*
M02*
