G04*
G04 #@! TF.GenerationSoftware,Altium Limited,Altium Designer,22.2.1 (43)*
G04*
G04 Layer_Physical_Order=2*
G04 Layer_Color=16711680*
%FSLAX23Y23*%
%MOIN*%
G70*
G04*
G04 #@! TF.SameCoordinates,8410DD60-BE5F-4665-B969-63B9D7D5DCD7*
G04*
G04*
G04 #@! TF.FilePolarity,Positive*
G04*
G01*
G75*
%ADD10C,0.010*%
%ADD61C,0.070*%
%ADD62C,0.079*%
%ADD63R,0.065X0.065*%
%ADD64C,0.065*%
%ADD65R,0.050X0.050*%
%ADD66C,0.050*%
%ADD67R,0.047X0.047*%
%ADD68C,0.047*%
%ADD69C,0.062*%
%ADD70R,0.062X0.062*%
%ADD71C,0.022*%
%ADD72R,0.047X0.028*%
%ADD73R,0.047X0.030*%
%ADD74R,0.047X0.031*%
%ADD75R,0.374X0.148*%
%ADD76C,0.035*%
D10*
X210Y128D02*
X893D01*
X2121Y916D02*
X2132Y927D01*
X403Y845D02*
X405D01*
X248Y998D02*
X250D01*
X403Y845D01*
X1648Y1585D02*
X1673Y1610D01*
X1460Y1585D02*
X1648D01*
X1673Y1610D02*
X1680D01*
X234Y1350D02*
X315Y1269D01*
Y1260D02*
Y1269D01*
X180Y1350D02*
X234D01*
X814Y1244D02*
X935Y1365D01*
X814Y1150D02*
Y1244D01*
X730Y1465D02*
X825Y1370D01*
X1005Y1588D02*
Y1590D01*
X995Y1055D02*
Y1578D01*
X1005Y1588D01*
X865Y925D02*
X995Y1055D01*
X680Y1465D02*
X730D01*
X690Y365D02*
X715Y340D01*
X670Y660D02*
X690Y640D01*
Y365D02*
Y640D01*
X715Y340D02*
X1025D01*
X1137Y452D01*
Y678D01*
X1090Y725D02*
X1137Y678D01*
X444Y231D02*
Y609D01*
X893Y128D02*
X990Y225D01*
X444Y231D02*
X450Y225D01*
X990D01*
X444Y609D02*
X585Y750D01*
X865Y505D02*
Y925D01*
Y505D02*
X945Y425D01*
X990D01*
X1055Y1600D02*
X1110Y1655D01*
X1055Y1510D02*
Y1600D01*
X575Y760D02*
Y1029D01*
Y760D02*
X585Y750D01*
X575Y1275D02*
Y1503D01*
X635Y1563D01*
X1195Y185D02*
X1285D01*
X1195Y1860D02*
X1285D01*
Y185D02*
Y1860D01*
X1195Y185D02*
Y1860D01*
D61*
X1829Y1320D02*
Y1759D01*
D62*
X2135Y1205D02*
D03*
X2285D02*
D03*
Y865D02*
D03*
X2135D02*
D03*
D63*
X990Y225D02*
D03*
D64*
X1090Y325D02*
D03*
X990Y425D02*
D03*
X1090Y525D02*
D03*
X990Y625D02*
D03*
X1090Y725D02*
D03*
X990Y825D02*
D03*
X1090Y925D02*
D03*
X1690Y950D02*
D03*
Y800D02*
D03*
Y650D02*
D03*
Y500D02*
D03*
Y350D02*
D03*
Y200D02*
D03*
D65*
X1830Y1760D02*
D03*
D66*
X2027D02*
D03*
D67*
X585Y750D02*
D03*
X635Y1563D02*
D03*
D68*
X585Y553D02*
D03*
X635Y1760D02*
D03*
D69*
X210Y128D02*
D03*
D70*
Y915D02*
D03*
D71*
X405Y845D02*
D03*
X248Y998D02*
D03*
X1680Y1610D02*
D03*
X1460Y1585D02*
D03*
X315Y1260D02*
D03*
X180Y1350D02*
D03*
X935Y1365D02*
D03*
X814Y1150D02*
D03*
X825Y1370D02*
D03*
X680Y1465D02*
D03*
X670Y660D02*
D03*
X1005Y1590D02*
D03*
X1110Y1655D02*
D03*
X1055Y1510D02*
D03*
D72*
X2132Y1055D02*
D03*
Y1015D02*
D03*
D73*
Y975D02*
D03*
Y1095D02*
D03*
D74*
Y927D02*
D03*
Y1143D02*
D03*
D75*
X575Y1029D02*
D03*
Y1275D02*
D03*
D76*
X2270Y650D02*
X2380Y760D01*
X1690Y650D02*
X2270D01*
X2380Y760D02*
Y1000D01*
X2237Y1143D02*
X2380Y1000D01*
X2132Y1143D02*
X2237D01*
X1967Y927D02*
X2132D01*
X1829Y1141D02*
Y1320D01*
X1690Y650D02*
X1967Y927D01*
X1829Y1141D02*
X1995Y975D01*
X2055Y1095D02*
X2132D01*
X1829Y1320D02*
X2055Y1095D01*
X1995Y975D02*
X2132D01*
M02*
