G04*
G04 #@! TF.GenerationSoftware,Altium Limited,Altium Designer,22.2.1 (43)*
G04*
G04 Layer_Color=32768*
%FSLAX23Y23*%
%MOIN*%
G70*
G04*
G04 #@! TF.SameCoordinates,8410DD60-BE5F-4665-B969-63B9D7D5DCD7*
G04*
G04*
G04 #@! TF.FilePolarity,Positive*
G04*
G01*
G75*
%ADD14C,0.005*%
%ADD81C,0.004*%
%ADD82C,0.002*%
D14*
X358Y935D02*
Y1369D01*
Y935D02*
X792D01*
Y1369D01*
X358D02*
X792D01*
D81*
X2056Y786D02*
Y1284D01*
Y786D02*
X2427D01*
Y1284D01*
X2056D02*
X2427D01*
X888Y1038D02*
X1892D01*
X888Y112D02*
Y1038D01*
Y112D02*
X1892D01*
Y1038D01*
X979Y1417D02*
Y1878D01*
X691D02*
X979D01*
X691Y1417D02*
Y1878D01*
Y1417D02*
X979D01*
X815Y1611D02*
X855D01*
X835Y1591D02*
Y1631D01*
D82*
X2145Y1760D02*
G03*
X2145Y1760I-217J0D01*
G01*
X856Y652D02*
G03*
X856Y652I-271J0D01*
G01*
X906Y1662D02*
G03*
X906Y1662I-271J0D01*
G01*
X150Y1193D02*
Y1307D01*
X220D01*
Y1193D02*
Y1307D01*
X150Y1193D02*
X220D01*
X1403Y1696D02*
Y1834D01*
X1067D02*
X1403D01*
X1067Y1696D02*
Y1834D01*
Y1696D02*
X1403D01*
X1335Y1638D02*
Y1682D01*
Y1638D02*
X1428D01*
Y1682D01*
X1335D02*
X1428D01*
X1468Y1643D02*
Y1808D01*
X1607D01*
Y1643D02*
Y1808D01*
X1468Y1643D02*
X1607D01*
X1548Y1830D02*
X1662D01*
X1548D02*
Y1890D01*
X1662D01*
Y1830D02*
Y1890D01*
X1662Y1714D02*
Y1806D01*
X1618Y1714D02*
X1662D01*
X1618D02*
Y1806D01*
X1662D01*
X1416Y1829D02*
X1514D01*
X1416D02*
Y1881D01*
X1514D01*
Y1829D02*
Y1881D01*
X108Y1852D02*
X562D01*
Y1498D02*
Y1852D01*
X108Y1498D02*
X562D01*
X108D02*
Y1852D01*
X775Y1297D02*
X835D01*
X775Y1183D02*
Y1297D01*
Y1183D02*
X835D01*
Y1297D01*
X203Y666D02*
X467D01*
X203Y284D02*
Y666D01*
Y284D02*
X467D01*
Y666D01*
X129Y956D02*
X291D01*
Y87D02*
Y956D01*
X129Y87D02*
X291D01*
X129D02*
Y956D01*
X1413Y1719D02*
X1457D01*
Y1811D01*
X1413D02*
X1457D01*
X1413Y1719D02*
Y1811D01*
X631Y1323D02*
Y1367D01*
X539D02*
X631D01*
X539Y1323D02*
Y1367D01*
Y1323D02*
X631D01*
X913Y1065D02*
X1087D01*
Y1345D01*
X913D02*
X1087D01*
X913Y1065D02*
Y1345D01*
X182Y992D02*
X218D01*
Y1068D01*
X182D02*
X218D01*
X182Y992D02*
Y1068D01*
X333Y1047D02*
Y1083D01*
X257D02*
X333D01*
X257Y1047D02*
Y1083D01*
Y1047D02*
X333D01*
X803Y968D02*
X877D01*
Y1102D01*
X803D02*
X877D01*
X803Y968D02*
Y1102D01*
X649Y1038D02*
Y1082D01*
Y1038D02*
X741D01*
Y1082D01*
X649D02*
X741D01*
X202Y1127D02*
Y1163D01*
Y1127D02*
X278D01*
Y1163D01*
X202D02*
X278D01*
M02*
