G04*
G04 #@! TF.GenerationSoftware,Altium Limited,Altium Designer,22.2.1 (43)*
G04*
G04 Layer_Physical_Order=1*
G04 Layer_Color=255*
%FSLAX23Y23*%
%MOIN*%
G70*
G04*
G04 #@! TF.SameCoordinates,8410DD60-BE5F-4665-B969-63B9D7D5DCD7*
G04*
G04*
G04 #@! TF.FilePolarity,Positive*
G04*
G01*
G75*
%ADD10C,0.010*%
%ADD15R,0.058X0.024*%
%ADD16R,0.065X0.026*%
%ADD17R,0.030X0.024*%
%ADD18R,0.024X0.047*%
%ADD19R,0.031X0.037*%
%ADD20R,0.024X0.030*%
%ADD21R,0.031X0.039*%
%ADD22R,0.061X0.024*%
%ADD23R,0.093X0.053*%
%ADD24R,0.039X0.108*%
%ADD25R,0.209X0.256*%
%ADD26R,0.037X0.031*%
%ADD27R,0.384X0.480*%
%ADD28R,0.138X0.063*%
%ADD29R,0.122X0.087*%
%ADD30R,0.085X0.087*%
%ADD31R,0.036X0.057*%
%ADD32R,0.016X0.025*%
%ADD33R,0.025X0.016*%
%ADD34R,0.055X0.039*%
%ADD61C,0.070*%
%ADD62C,0.079*%
%ADD63R,0.065X0.065*%
%ADD64C,0.065*%
%ADD65R,0.050X0.050*%
%ADD66C,0.050*%
%ADD67R,0.047X0.047*%
%ADD68C,0.047*%
%ADD69C,0.062*%
%ADD70R,0.062X0.062*%
%ADD71C,0.022*%
G36*
X2070Y75D02*
X1355D01*
X1351Y1082D01*
X1356Y1082D01*
X1357Y1078D01*
X1361Y1067D01*
X1368Y1057D01*
X1658Y768D01*
X1667Y761D01*
X1678Y756D01*
X1690Y755D01*
X1702Y756D01*
X1713Y761D01*
X1722Y768D01*
X1729Y777D01*
X1734Y788D01*
X1735Y800D01*
X1734Y812D01*
X1729Y823D01*
X1722Y832D01*
X1446Y1108D01*
Y1144D01*
X1479D01*
Y1226D01*
X1446D01*
Y1344D01*
X1479D01*
Y1426D01*
X1418D01*
X1412Y1429D01*
X1400Y1430D01*
X1389Y1429D01*
X1383Y1426D01*
X1350D01*
X1349Y1635D01*
X1352Y1638D01*
X1391D01*
X1392Y1633D01*
X1395Y1628D01*
X1439Y1584D01*
Y1581D01*
X1442Y1573D01*
X1448Y1567D01*
X1456Y1564D01*
X1464D01*
X1472Y1567D01*
X1478Y1573D01*
X1481Y1581D01*
Y1589D01*
X1478Y1597D01*
X1472Y1603D01*
X1464Y1606D01*
X1461D01*
X1428Y1639D01*
Y1682D01*
X1375D01*
Y1717D01*
X1403D01*
Y1726D01*
X1413D01*
Y1719D01*
X1457D01*
Y1771D01*
X1478D01*
Y1741D01*
X1522D01*
Y1809D01*
X1478D01*
Y1802D01*
X1457D01*
Y1811D01*
X1450D01*
Y1826D01*
X1462D01*
X1463Y1826D01*
X1467D01*
X1468Y1826D01*
X1518D01*
Y1840D01*
X1548D01*
Y1831D01*
X1560D01*
Y1809D01*
X1553D01*
Y1741D01*
X1597D01*
Y1766D01*
X1618D01*
Y1714D01*
X1625D01*
Y1650D01*
X1626Y1644D01*
X1629Y1639D01*
X1659Y1609D01*
Y1606D01*
X1662Y1598D01*
X1668Y1592D01*
X1676Y1589D01*
X1684D01*
X1692Y1592D01*
X1698Y1598D01*
X1701Y1606D01*
Y1614D01*
X1698Y1622D01*
X1692Y1628D01*
X1684Y1631D01*
X1681D01*
X1655Y1656D01*
Y1714D01*
X1662D01*
Y1726D01*
X1666D01*
X1672Y1727D01*
X1677Y1730D01*
X1691Y1745D01*
X1785D01*
Y1535D01*
X1603D01*
Y1035D01*
X2007D01*
Y1535D01*
X1875D01*
Y1760D01*
X1874Y1772D01*
X1869Y1783D01*
X1865Y1788D01*
Y1795D01*
X1858D01*
X1853Y1799D01*
X1842Y1804D01*
X1830Y1805D01*
X1818Y1804D01*
X1807Y1799D01*
X1802Y1795D01*
X1795D01*
Y1788D01*
X1791Y1783D01*
X1788Y1775D01*
X1685D01*
X1679Y1774D01*
X1674Y1771D01*
X1666Y1763D01*
X1662Y1765D01*
Y1806D01*
X1618D01*
Y1797D01*
X1597D01*
Y1809D01*
X1590D01*
Y1831D01*
X1599D01*
Y1889D01*
X1548D01*
Y1870D01*
X1518D01*
Y1884D01*
X1468D01*
X1467Y1884D01*
X1463D01*
X1462Y1884D01*
X1412D01*
Y1826D01*
X1420D01*
Y1811D01*
X1413D01*
Y1804D01*
X1403D01*
Y1813D01*
X1348D01*
X1347Y1977D01*
X1355Y1985D01*
X2070D01*
Y75D01*
D02*
G37*
G36*
X1160Y1970D02*
Y30D01*
X110D01*
X105Y25D01*
X95Y35D01*
Y1990D01*
X95Y1990D01*
X97Y1995D01*
X1135D01*
X1160Y1970D01*
D02*
G37*
%LPC*%
G36*
X1631Y1889D02*
X1611D01*
Y1865D01*
X1631D01*
Y1889D01*
D02*
G37*
G36*
Y1855D02*
X1611D01*
Y1831D01*
X1631D01*
Y1855D01*
D02*
G37*
G36*
X2032Y1795D02*
Y1765D01*
X2062D01*
X2060Y1774D01*
X2055Y1782D01*
X2048Y1788D01*
X2040Y1793D01*
X2032Y1795D01*
D02*
G37*
G36*
X1662Y1889D02*
X1641D01*
Y1860D01*
Y1831D01*
X1662D01*
Y1845D01*
X1921D01*
X1994Y1772D01*
X1992Y1765D01*
X2022D01*
Y1795D01*
X2015Y1793D01*
X1938Y1871D01*
X1933Y1874D01*
X1927Y1875D01*
X1662D01*
Y1889D01*
D02*
G37*
G36*
X2062Y1755D02*
X2032D01*
Y1725D01*
X2040Y1727D01*
X2048Y1732D01*
X2055Y1738D01*
X2060Y1746D01*
X2062Y1755D01*
D02*
G37*
G36*
X2022D02*
X1992D01*
X1994Y1746D01*
X1999Y1738D01*
X2005Y1732D01*
X2013Y1727D01*
X2022Y1725D01*
Y1755D01*
D02*
G37*
G36*
X1597Y1710D02*
X1580D01*
Y1682D01*
X1597D01*
Y1710D01*
D02*
G37*
G36*
Y1672D02*
X1580D01*
Y1643D01*
X1597D01*
Y1672D01*
D02*
G37*
G36*
X1570Y1710D02*
X1478D01*
Y1643D01*
X1570D01*
Y1677D01*
Y1710D01*
D02*
G37*
G36*
X1696Y992D02*
X1684D01*
X1674Y990D01*
X1664Y984D01*
X1656Y976D01*
X1650Y966D01*
X1648Y956D01*
Y944D01*
X1650Y934D01*
X1656Y924D01*
X1664Y916D01*
X1674Y910D01*
X1684Y908D01*
X1696D01*
X1706Y910D01*
X1716Y916D01*
X1724Y924D01*
X1730Y934D01*
X1732Y944D01*
Y956D01*
X1730Y966D01*
X1724Y976D01*
X1716Y984D01*
X1706Y990D01*
X1696Y992D01*
D02*
G37*
G36*
Y692D02*
X1695D01*
Y655D01*
X1732D01*
Y656D01*
X1730Y666D01*
X1724Y676D01*
X1716Y684D01*
X1706Y690D01*
X1696Y692D01*
D02*
G37*
G36*
X1685D02*
X1684D01*
X1674Y690D01*
X1664Y684D01*
X1656Y676D01*
X1650Y666D01*
X1648Y656D01*
Y655D01*
X1685D01*
Y692D01*
D02*
G37*
G36*
X1732Y645D02*
X1695D01*
Y608D01*
X1696D01*
X1706Y610D01*
X1716Y616D01*
X1724Y624D01*
X1730Y634D01*
X1732Y644D01*
Y645D01*
D02*
G37*
G36*
X1685D02*
X1648D01*
Y644D01*
X1650Y634D01*
X1656Y624D01*
X1664Y616D01*
X1674Y610D01*
X1684Y608D01*
X1685D01*
Y645D01*
D02*
G37*
G36*
X1696Y542D02*
X1684D01*
X1674Y540D01*
X1664Y534D01*
X1656Y526D01*
X1650Y516D01*
X1648Y506D01*
Y494D01*
X1650Y484D01*
X1656Y474D01*
X1664Y466D01*
X1674Y460D01*
X1684Y458D01*
X1696D01*
X1706Y460D01*
X1716Y466D01*
X1724Y474D01*
X1730Y484D01*
X1732Y494D01*
Y506D01*
X1730Y516D01*
X1724Y526D01*
X1716Y534D01*
X1706Y540D01*
X1696Y542D01*
D02*
G37*
G36*
Y392D02*
X1684D01*
X1674Y390D01*
X1664Y384D01*
X1656Y376D01*
X1650Y366D01*
X1648Y356D01*
Y344D01*
X1650Y334D01*
X1656Y324D01*
X1664Y316D01*
X1674Y310D01*
X1684Y308D01*
X1696D01*
X1706Y310D01*
X1716Y316D01*
X1724Y324D01*
X1730Y334D01*
X1732Y344D01*
Y356D01*
X1730Y366D01*
X1724Y376D01*
X1716Y384D01*
X1706Y390D01*
X1696Y392D01*
D02*
G37*
G36*
Y242D02*
X1684D01*
X1674Y240D01*
X1664Y234D01*
X1656Y226D01*
X1650Y216D01*
X1648Y206D01*
Y194D01*
X1650Y184D01*
X1656Y174D01*
X1664Y166D01*
X1674Y160D01*
X1684Y158D01*
X1696D01*
X1706Y160D01*
X1716Y166D01*
X1724Y174D01*
X1730Y184D01*
X1732Y194D01*
Y206D01*
X1730Y216D01*
X1724Y226D01*
X1716Y234D01*
X1706Y240D01*
X1696Y242D01*
D02*
G37*
G36*
X563Y1812D02*
X511D01*
Y1780D01*
X563D01*
Y1812D01*
D02*
G37*
G36*
X501D02*
X450D01*
Y1780D01*
X501D01*
Y1812D01*
D02*
G37*
G36*
X640Y1793D02*
Y1765D01*
X668D01*
X666Y1773D01*
X662Y1781D01*
X656Y1787D01*
X648Y1791D01*
X640Y1793D01*
D02*
G37*
G36*
X630D02*
X622Y1791D01*
X614Y1787D01*
X608Y1781D01*
X604Y1773D01*
X602Y1765D01*
X630D01*
Y1793D01*
D02*
G37*
G36*
X563Y1770D02*
X511D01*
Y1739D01*
X563D01*
Y1770D01*
D02*
G37*
G36*
X501D02*
X450D01*
Y1739D01*
X501D01*
Y1770D01*
D02*
G37*
G36*
X220Y1812D02*
X107D01*
Y1739D01*
X220D01*
Y1812D01*
D02*
G37*
G36*
X668Y1755D02*
X640D01*
Y1727D01*
X648Y1729D01*
X656Y1733D01*
X662Y1739D01*
X666Y1747D01*
X668Y1755D01*
D02*
G37*
G36*
X630D02*
X602D01*
X604Y1747D01*
X608Y1739D01*
X614Y1733D01*
X622Y1729D01*
X630Y1727D01*
Y1755D01*
D02*
G37*
G36*
X1151Y1813D02*
X1067D01*
Y1805D01*
X1045D01*
X1039Y1804D01*
X1034Y1801D01*
X994Y1761D01*
X991Y1756D01*
X990Y1750D01*
Y1665D01*
X991Y1659D01*
X994Y1654D01*
X1105Y1544D01*
Y1488D01*
X1100Y1487D01*
X1076Y1511D01*
Y1514D01*
X1073Y1522D01*
X1067Y1528D01*
X1059Y1531D01*
X1051D01*
X1043Y1528D01*
X1037Y1522D01*
X1034Y1514D01*
Y1506D01*
X1037Y1498D01*
X1043Y1492D01*
X1051Y1489D01*
X1054D01*
X1080Y1464D01*
Y1261D01*
X1057Y1239D01*
X1052Y1241D01*
X1052Y1242D01*
X1052Y1242D01*
X1052Y1242D01*
Y1345D01*
X1011D01*
X1010Y1350D01*
X1007Y1355D01*
X986Y1376D01*
X981Y1379D01*
X975Y1380D01*
X949D01*
X947Y1383D01*
X939Y1386D01*
X937D01*
X935Y1391D01*
X941Y1397D01*
X944Y1402D01*
X945Y1408D01*
Y1418D01*
X955D01*
Y1546D01*
X895D01*
Y1418D01*
X912D01*
X913Y1413D01*
X829Y1329D01*
X826Y1324D01*
X825Y1321D01*
X820Y1321D01*
Y1333D01*
X836Y1348D01*
X839Y1353D01*
X839Y1355D01*
X843Y1358D01*
X846Y1366D01*
Y1374D01*
X843Y1382D01*
X837Y1388D01*
X829Y1391D01*
X821D01*
X813Y1388D01*
X807Y1382D01*
X804Y1374D01*
Y1366D01*
X806Y1362D01*
X794Y1350D01*
X791Y1345D01*
X790Y1339D01*
Y1297D01*
X776D01*
Y1246D01*
X825D01*
Y1234D01*
X776D01*
Y1183D01*
X790D01*
Y1171D01*
X791Y1165D01*
X794Y1160D01*
X795Y1159D01*
X793Y1154D01*
Y1146D01*
X796Y1138D01*
X802Y1132D01*
X810Y1129D01*
X818D01*
X821Y1130D01*
X825Y1127D01*
Y1102D01*
X802D01*
Y1090D01*
X774D01*
X768Y1089D01*
X763Y1086D01*
X752Y1075D01*
X741D01*
Y1082D01*
X689D01*
Y1103D01*
X712D01*
Y1147D01*
X631D01*
Y1103D01*
X658D01*
Y1082D01*
X649D01*
Y1038D01*
X741D01*
Y1045D01*
X759D01*
X765Y1046D01*
X770Y1049D01*
X780Y1060D01*
X802D01*
Y1043D01*
X878D01*
Y1102D01*
X855D01*
Y1312D01*
X909Y1365D01*
X914Y1363D01*
Y1361D01*
X917Y1353D01*
X923Y1347D01*
X931Y1344D01*
X939D01*
X943Y1346D01*
X948Y1342D01*
Y1238D01*
X1048Y1238D01*
X1049D01*
X1049D01*
X1050Y1238D01*
X1050Y1236D01*
X1052Y1233D01*
X1000Y1182D01*
X997Y1177D01*
X996Y1172D01*
X948D01*
Y1065D01*
X982D01*
X983Y1060D01*
X779Y856D01*
X776Y851D01*
X775Y845D01*
Y521D01*
X744Y490D01*
X561D01*
X535Y516D01*
Y703D01*
X540Y705D01*
X596Y649D01*
X601Y646D01*
X607Y645D01*
X656D01*
X658Y642D01*
X666Y639D01*
X674D01*
X682Y642D01*
X688Y648D01*
X691Y656D01*
Y664D01*
X688Y672D01*
X682Y678D01*
X674Y681D01*
X666D01*
X658Y678D01*
X656Y675D01*
X613D01*
X576Y712D01*
X578Y716D01*
X619D01*
Y784D01*
X600D01*
Y1201D01*
X652Y1253D01*
X712D01*
Y1297D01*
X631D01*
Y1275D01*
X627Y1271D01*
X622Y1273D01*
Y1323D01*
X631D01*
Y1367D01*
X622D01*
Y1385D01*
X681Y1444D01*
X684D01*
X692Y1447D01*
X698Y1453D01*
X701Y1461D01*
Y1469D01*
X698Y1477D01*
X692Y1483D01*
X684Y1486D01*
X676D01*
X668Y1483D01*
X662Y1477D01*
X659Y1469D01*
Y1466D01*
X596Y1402D01*
X593Y1398D01*
X591Y1392D01*
Y1367D01*
X539D01*
Y1360D01*
X310D01*
X304Y1359D01*
X299Y1356D01*
X249Y1306D01*
X246Y1301D01*
X245Y1295D01*
Y1163D01*
X229D01*
Y1145D01*
X224D01*
Y1140D01*
X201D01*
Y1127D01*
X215D01*
X216Y1122D01*
X214Y1121D01*
X189Y1096D01*
X186Y1091D01*
X185Y1085D01*
Y1069D01*
X182D01*
Y1024D01*
Y991D01*
X218D01*
Y998D01*
X223Y1000D01*
X227Y997D01*
Y993D01*
X230Y986D01*
X236Y980D01*
X243Y976D01*
X252D01*
X259Y980D01*
X265Y986D01*
X269Y993D01*
Y1002D01*
X265Y1009D01*
X259Y1015D01*
X252Y1018D01*
X248D01*
X238Y1028D01*
X233Y1032D01*
X227Y1033D01*
X218D01*
Y1069D01*
X215D01*
Y1079D01*
X231Y1095D01*
X269D01*
X276Y1087D01*
X274Y1083D01*
X256D01*
Y1070D01*
X279D01*
Y1060D01*
X256D01*
Y1047D01*
X263D01*
Y1045D01*
X265Y1039D01*
X268Y1034D01*
X318Y984D01*
X323Y981D01*
X328Y980D01*
X390D01*
Y956D01*
X413D01*
Y995D01*
Y1033D01*
X390D01*
Y1010D01*
X335D01*
X303Y1043D01*
X304Y1047D01*
X334D01*
Y1083D01*
X321D01*
X320Y1085D01*
X317Y1090D01*
X297Y1110D01*
X307Y1120D01*
X386D01*
X392Y1121D01*
X396Y1124D01*
X414Y1141D01*
X418Y1139D01*
Y1130D01*
X454D01*
Y1147D01*
X430D01*
X428Y1152D01*
X429Y1153D01*
X452D01*
X453Y1153D01*
X499D01*
Y1197D01*
X425D01*
X422Y1202D01*
X422Y1202D01*
X423Y1203D01*
X499D01*
Y1247D01*
X418D01*
Y1239D01*
X413Y1238D01*
X408Y1235D01*
X344Y1170D01*
X292D01*
X286Y1169D01*
X281Y1166D01*
X280Y1165D01*
X275Y1167D01*
Y1289D01*
X316Y1330D01*
X539D01*
Y1323D01*
X591D01*
Y1264D01*
X540Y1213D01*
X535Y1215D01*
Y1265D01*
X534Y1271D01*
X531Y1276D01*
X521Y1286D01*
X516Y1289D01*
X510Y1290D01*
X499D01*
Y1297D01*
X418D01*
Y1290D01*
X341D01*
X335Y1289D01*
X330Y1286D01*
X323Y1279D01*
X319Y1281D01*
X311D01*
X303Y1278D01*
X297Y1272D01*
X294Y1264D01*
Y1256D01*
X297Y1248D01*
X303Y1242D01*
X311Y1239D01*
X319D01*
X327Y1242D01*
X330Y1246D01*
X332Y1246D01*
X337Y1249D01*
X347Y1260D01*
X418D01*
Y1253D01*
X499D01*
Y1253D01*
X504Y1255D01*
X505Y1254D01*
Y1033D01*
X454D01*
Y956D01*
X468D01*
Y930D01*
X404Y866D01*
X401D01*
X393Y863D01*
X387Y857D01*
X384Y849D01*
Y841D01*
X387Y833D01*
X393Y827D01*
X401Y824D01*
X409D01*
X417Y827D01*
X423Y833D01*
X426Y841D01*
Y844D01*
X463Y882D01*
X468Y880D01*
Y432D01*
X469Y426D01*
X472Y421D01*
X495Y398D01*
X500Y395D01*
X506Y394D01*
X514D01*
X518Y395D01*
X745D01*
X751Y396D01*
X756Y399D01*
X941Y584D01*
X944Y589D01*
X945Y595D01*
Y608D01*
X950Y609D01*
X950Y609D01*
X956Y599D01*
X964Y591D01*
X974Y585D01*
X984Y583D01*
X996D01*
X1006Y585D01*
X1016Y591D01*
X1024Y599D01*
X1030Y609D01*
X1032Y619D01*
Y631D01*
X1030Y641D01*
X1024Y651D01*
X1016Y659D01*
X1006Y665D01*
X996Y667D01*
X984D01*
X974Y665D01*
X964Y659D01*
X956Y651D01*
X950Y641D01*
X950Y641D01*
X945Y642D01*
Y808D01*
X950Y809D01*
X950Y809D01*
X956Y799D01*
X964Y791D01*
X974Y785D01*
X984Y783D01*
X996D01*
X1006Y785D01*
X1016Y791D01*
X1024Y799D01*
X1030Y809D01*
X1032Y819D01*
Y831D01*
X1030Y841D01*
X1024Y851D01*
X1016Y859D01*
X1006Y865D01*
X996Y867D01*
X984D01*
X974Y865D01*
X964Y859D01*
X956Y851D01*
X950Y841D01*
X950Y841D01*
X945Y842D01*
Y919D01*
X1131Y1104D01*
X1134Y1109D01*
X1135Y1115D01*
Y1550D01*
X1134Y1556D01*
X1131Y1561D01*
X1020Y1671D01*
Y1744D01*
X1051Y1775D01*
X1067D01*
Y1768D01*
X1067Y1767D01*
Y1763D01*
X1067Y1762D01*
Y1717D01*
X1095D01*
Y1669D01*
X1092Y1667D01*
X1089Y1659D01*
Y1651D01*
X1092Y1643D01*
X1098Y1637D01*
X1106Y1634D01*
X1114D01*
X1122Y1637D01*
X1128Y1643D01*
X1131Y1651D01*
Y1659D01*
X1128Y1667D01*
X1125Y1669D01*
Y1717D01*
X1151D01*
Y1762D01*
X1151Y1763D01*
Y1767D01*
X1151Y1768D01*
Y1813D01*
D02*
G37*
G36*
X949Y1878D02*
X721D01*
Y1602D01*
X933D01*
X934Y1602D01*
X969D01*
X984Y1587D01*
Y1586D01*
X987Y1578D01*
X993Y1572D01*
X1001Y1569D01*
X1009D01*
X1017Y1572D01*
X1023Y1578D01*
X1026Y1586D01*
Y1594D01*
X1023Y1602D01*
X1017Y1608D01*
X1009Y1611D01*
X1003D01*
X986Y1628D01*
X981Y1631D01*
X975Y1632D01*
X949D01*
Y1878D01*
D02*
G37*
G36*
X220Y1611D02*
X107D01*
Y1538D01*
X220D01*
Y1611D01*
D02*
G37*
G36*
X563D02*
X450D01*
Y1538D01*
X563D01*
Y1559D01*
X601D01*
Y1530D01*
X669D01*
Y1597D01*
X601D01*
Y1590D01*
X563D01*
Y1611D01*
D02*
G37*
G36*
X184Y1371D02*
X176D01*
X168Y1368D01*
X162Y1362D01*
X159Y1354D01*
Y1346D01*
X162Y1338D01*
X165Y1336D01*
Y1312D01*
X146D01*
Y1267D01*
X224D01*
Y1312D01*
X195D01*
Y1336D01*
X198Y1338D01*
X201Y1346D01*
Y1354D01*
X198Y1362D01*
X192Y1368D01*
X184Y1371D01*
D02*
G37*
G36*
X224Y1233D02*
X190D01*
Y1216D01*
X224D01*
Y1233D01*
D02*
G37*
G36*
X180D02*
X146D01*
Y1216D01*
X180D01*
Y1233D01*
D02*
G37*
G36*
X224Y1206D02*
X190D01*
Y1188D01*
X224D01*
Y1206D01*
D02*
G37*
G36*
X180D02*
X146D01*
Y1188D01*
X180D01*
Y1206D01*
D02*
G37*
G36*
X775Y1546D02*
X715D01*
Y1418D01*
X730D01*
Y1211D01*
X717Y1198D01*
X712Y1197D01*
Y1197D01*
X712Y1197D01*
X631D01*
Y1153D01*
X712D01*
Y1160D01*
X715D01*
X721Y1161D01*
X726Y1164D01*
X756Y1194D01*
X759Y1199D01*
X760Y1205D01*
Y1418D01*
X775D01*
Y1546D01*
D02*
G37*
G36*
X219Y1163D02*
X201D01*
Y1150D01*
X219D01*
Y1163D01*
D02*
G37*
G36*
X499Y1147D02*
X464D01*
Y1130D01*
X499D01*
Y1147D01*
D02*
G37*
G36*
Y1120D02*
X464D01*
Y1103D01*
X499D01*
Y1120D01*
D02*
G37*
G36*
X454D02*
X418D01*
Y1103D01*
X454D01*
Y1120D01*
D02*
G37*
G36*
X878Y1027D02*
X845D01*
Y1003D01*
X878D01*
Y1027D01*
D02*
G37*
G36*
X835D02*
X802D01*
Y1003D01*
X835D01*
Y1027D01*
D02*
G37*
G36*
X446Y1033D02*
X423D01*
Y1000D01*
X446D01*
Y1033D01*
D02*
G37*
G36*
X878Y993D02*
X845D01*
Y968D01*
X878D01*
Y993D01*
D02*
G37*
G36*
X835D02*
X802D01*
Y968D01*
X835D01*
Y993D01*
D02*
G37*
G36*
X446Y990D02*
X423D01*
Y956D01*
X446D01*
Y990D01*
D02*
G37*
G36*
X1096Y967D02*
X1084D01*
X1074Y965D01*
X1064Y959D01*
X1056Y951D01*
X1050Y941D01*
X1048Y931D01*
Y919D01*
X1050Y909D01*
X1056Y899D01*
X1064Y891D01*
X1074Y885D01*
X1084Y883D01*
X1096D01*
X1106Y885D01*
X1116Y891D01*
X1124Y899D01*
X1130Y909D01*
X1132Y919D01*
Y931D01*
X1130Y941D01*
X1124Y951D01*
X1116Y959D01*
X1106Y965D01*
X1096Y967D01*
D02*
G37*
G36*
Y767D02*
X1084D01*
X1074Y765D01*
X1064Y759D01*
X1056Y751D01*
X1050Y741D01*
X1048Y731D01*
Y719D01*
X1050Y709D01*
X1056Y699D01*
X1064Y691D01*
X1074Y685D01*
X1084Y683D01*
X1096D01*
X1106Y685D01*
X1116Y691D01*
X1124Y699D01*
X1130Y709D01*
X1132Y719D01*
Y731D01*
X1130Y741D01*
X1124Y751D01*
X1116Y759D01*
X1106Y765D01*
X1096Y767D01*
D02*
G37*
G36*
X251Y956D02*
X169D01*
Y874D01*
X195D01*
Y720D01*
X196Y714D01*
X199Y709D01*
X264Y644D01*
Y559D01*
X406D01*
Y666D01*
X286D01*
X225Y726D01*
Y874D01*
X251D01*
Y956D01*
D02*
G37*
G36*
X590Y587D02*
Y558D01*
X618D01*
X616Y566D01*
X612Y574D01*
X606Y580D01*
X598Y584D01*
X590Y587D01*
D02*
G37*
G36*
X580D02*
X572Y584D01*
X564Y580D01*
X558Y574D01*
X554Y566D01*
X552Y558D01*
X580D01*
Y587D01*
D02*
G37*
G36*
X1096Y567D02*
X1095D01*
Y530D01*
X1132D01*
Y531D01*
X1130Y541D01*
X1124Y551D01*
X1116Y559D01*
X1106Y565D01*
X1096Y567D01*
D02*
G37*
G36*
X1085D02*
X1084D01*
X1074Y565D01*
X1064Y559D01*
X1056Y551D01*
X1050Y541D01*
X1048Y531D01*
Y530D01*
X1085D01*
Y567D01*
D02*
G37*
G36*
X618Y548D02*
X590D01*
Y520D01*
X598Y522D01*
X606Y526D01*
X612Y533D01*
X616Y540D01*
X618Y548D01*
D02*
G37*
G36*
X580D02*
X552D01*
X554Y540D01*
X558Y533D01*
X564Y526D01*
X572Y522D01*
X580Y520D01*
Y548D01*
D02*
G37*
G36*
X1132Y520D02*
X1095D01*
Y483D01*
X1096D01*
X1106Y485D01*
X1116Y491D01*
X1124Y499D01*
X1130Y509D01*
X1132Y519D01*
Y520D01*
D02*
G37*
G36*
X1085D02*
X1048D01*
Y519D01*
X1050Y509D01*
X1056Y499D01*
X1064Y491D01*
X1074Y485D01*
X1084Y483D01*
X1085D01*
Y520D01*
D02*
G37*
G36*
X996Y467D02*
X984D01*
X974Y465D01*
X964Y459D01*
X956Y451D01*
X950Y441D01*
X948Y431D01*
Y419D01*
X950Y409D01*
X951Y408D01*
X896Y352D01*
X406D01*
Y391D01*
X264D01*
Y284D01*
X406D01*
Y322D01*
X902D01*
X908Y323D01*
X913Y326D01*
X973Y386D01*
X974Y385D01*
X984Y383D01*
X996D01*
X1006Y385D01*
X1016Y391D01*
X1024Y399D01*
X1030Y409D01*
X1032Y419D01*
Y431D01*
X1030Y441D01*
X1024Y451D01*
X1016Y459D01*
X1006Y465D01*
X996Y467D01*
D02*
G37*
G36*
X1096Y367D02*
X1084D01*
X1074Y365D01*
X1064Y359D01*
X1056Y351D01*
X1050Y341D01*
X1048Y331D01*
Y319D01*
X1050Y309D01*
X1056Y299D01*
X1064Y291D01*
X1074Y285D01*
X1084Y283D01*
X1096D01*
X1106Y285D01*
X1116Y291D01*
X1124Y299D01*
X1130Y309D01*
X1132Y319D01*
Y331D01*
X1130Y341D01*
X1124Y351D01*
X1116Y359D01*
X1106Y365D01*
X1096Y367D01*
D02*
G37*
G36*
X1032Y267D02*
X948D01*
Y183D01*
X1032D01*
Y267D01*
D02*
G37*
G36*
X215Y169D02*
X205D01*
X194Y166D01*
X185Y160D01*
X177Y153D01*
X172Y143D01*
X169Y133D01*
Y122D01*
X172Y112D01*
X177Y102D01*
X185Y95D01*
X194Y89D01*
X205Y87D01*
X215D01*
X226Y89D01*
X235Y95D01*
X243Y102D01*
X248Y112D01*
X251Y122D01*
Y133D01*
X248Y143D01*
X243Y153D01*
X235Y160D01*
X226Y166D01*
X215Y169D01*
D02*
G37*
%LPD*%
G36*
X1105Y1237D02*
Y1121D01*
X1057Y1074D01*
X1052Y1075D01*
Y1172D01*
X1040D01*
X1038Y1176D01*
X1100Y1238D01*
X1105Y1237D01*
D02*
G37*
G36*
X570Y1192D02*
Y784D01*
X562D01*
Y1191D01*
X565Y1194D01*
X570Y1192D01*
D02*
G37*
G36*
X1044Y1060D02*
X919Y936D01*
X916Y931D01*
X915Y925D01*
Y601D01*
X739Y425D01*
X515D01*
X512Y425D01*
X499Y438D01*
Y923D01*
Y956D01*
X505D01*
Y510D01*
X506Y504D01*
X509Y499D01*
X544Y464D01*
X549Y461D01*
X555Y460D01*
X750D01*
X756Y461D01*
X761Y464D01*
X801Y504D01*
X804Y509D01*
X805Y515D01*
Y839D01*
X1011Y1044D01*
X1014Y1049D01*
X1015Y1055D01*
Y1065D01*
X1042D01*
X1044Y1060D01*
D02*
G37*
D10*
X1640Y1741D02*
X1666D01*
X279Y1045D02*
X328Y995D01*
X418D01*
X279Y1045D02*
Y1065D01*
X306Y1068D02*
Y1079D01*
X275Y1110D02*
X306Y1079D01*
X309Y1065D02*
X311D01*
X306Y1068D02*
X309Y1065D01*
X275Y1110D02*
X300Y1135D01*
X282Y1145D02*
X292Y1155D01*
X350D02*
X419Y1224D01*
X386Y1135D02*
X419Y1168D01*
X292Y1155D02*
X350D01*
X300Y1135D02*
X386D01*
X260Y1145D02*
X282D01*
X225Y1110D02*
X275D01*
X419Y1168D02*
X452D01*
X200Y1085D02*
X225Y1110D01*
X200Y1046D02*
Y1085D01*
X483Y432D02*
Y923D01*
X200Y1018D02*
X227D01*
X405Y845D02*
X483Y923D01*
Y994D01*
X452Y1168D02*
X459Y1175D01*
X227Y1018D02*
X248Y998D01*
X520Y510D02*
Y1265D01*
X510Y1275D02*
X520Y1265D01*
X341Y1275D02*
X510D01*
X1640Y1650D02*
X1680Y1610D01*
X1640Y1650D02*
Y1738D01*
X326Y1260D02*
X341Y1275D01*
X315Y1260D02*
X326D01*
X180Y1294D02*
Y1350D01*
Y1294D02*
X185Y1289D01*
X1685Y1760D02*
X1830D01*
X1666Y1741D02*
X1685Y1760D01*
X1927Y1860D02*
X2027Y1760D01*
X1636Y1860D02*
X1927D01*
X1403Y1660D02*
X1406Y1657D01*
Y1639D02*
Y1657D01*
Y1639D02*
X1460Y1585D01*
X1363Y1742D02*
X1433D01*
X1361Y1740D02*
X1363Y1742D01*
X1433D02*
X1435Y1743D01*
X1360Y1739D02*
X1361Y1740D01*
X1360Y1660D02*
Y1739D01*
X1575Y1775D02*
X1581Y1782D01*
X1640D01*
X1574Y1860D02*
X1575Y1859D01*
Y1775D02*
Y1859D01*
X1493Y1855D02*
X1569D01*
X1574Y1860D01*
X1493Y1787D02*
X1500Y1780D01*
X1435Y1787D02*
X1493D01*
X1500Y1775D02*
Y1780D01*
X1435Y1853D02*
X1437Y1855D01*
X1435Y1787D02*
Y1853D01*
X1363Y1788D02*
X1433D01*
X1435Y1787D01*
X1361Y1790D02*
X1363Y1788D01*
X790Y515D02*
Y845D01*
X1000Y1055D02*
Y1118D01*
X790Y845D02*
X1000Y1055D01*
X1120Y1115D02*
Y1550D01*
X930Y595D02*
Y925D01*
X1120Y1115D01*
X515Y410D02*
X745D01*
X930Y595D01*
X555Y475D02*
X750D01*
X790Y515D01*
X1005Y1665D02*
X1120Y1550D01*
X1011Y1171D02*
X1095Y1255D01*
X1055Y1510D02*
X1095Y1470D01*
Y1255D02*
Y1470D01*
X1000Y1118D02*
X1011Y1129D01*
Y1171D01*
X975Y1365D02*
X996Y1344D01*
X935Y1365D02*
X975D01*
X996Y1296D02*
X1000Y1292D01*
X996Y1296D02*
Y1344D01*
X814Y1150D02*
X815Y1151D01*
X840Y1318D02*
X930Y1408D01*
Y1477D01*
X840Y1072D02*
Y1318D01*
X815Y1151D02*
Y1161D01*
X925Y1482D02*
X930Y1477D01*
X825Y1359D02*
Y1370D01*
X607Y1392D02*
X680Y1465D01*
X607Y1257D02*
Y1392D01*
X260Y1145D02*
Y1295D01*
X310Y1345D02*
X563D01*
X260Y1295D02*
X310Y1345D01*
X520Y510D02*
X555Y475D01*
X482Y995D02*
X483Y994D01*
Y432D02*
X506Y409D01*
X546Y720D02*
Y1197D01*
Y720D02*
X607Y660D01*
X546Y1197D02*
X607Y1257D01*
X506Y409D02*
X514D01*
X515Y410D01*
X335Y337D02*
X902D01*
X990Y425D01*
X607Y660D02*
X670D01*
X835Y1716D02*
X934Y1617D01*
X975D01*
X1003Y1590D01*
X835Y1716D02*
Y1740D01*
X1003Y1590D02*
X1005D01*
Y1665D02*
Y1750D01*
X1045Y1790D01*
X1109D01*
X1110Y1655D02*
Y1739D01*
X1109Y1740D02*
X1110Y1739D01*
X805Y1171D02*
Y1209D01*
Y1171D02*
X815Y1161D01*
X805Y1339D02*
X825Y1359D01*
X805Y1271D02*
Y1339D01*
X585Y1207D02*
X653Y1275D01*
X671D01*
X585Y750D02*
Y1207D01*
X715Y1175D02*
X745Y1205D01*
Y1482D01*
X671Y1175D02*
X715D01*
X210Y720D02*
Y915D01*
Y720D02*
X317Y613D01*
X335D01*
X506Y1575D02*
X624D01*
X635Y1563D01*
X759Y1060D02*
X774Y1075D01*
X717Y1060D02*
X759D01*
X774Y1075D02*
X828D01*
X671Y1125D02*
X673Y1123D01*
Y1060D02*
Y1123D01*
X458Y1224D02*
X459Y1225D01*
X419Y1224D02*
X458D01*
X1195Y185D02*
X1285D01*
X1195Y1860D02*
X1285D01*
Y185D02*
Y1860D01*
X1195Y185D02*
Y1860D01*
D15*
X185Y1211D02*
D03*
Y1289D02*
D03*
D16*
X1109Y1740D02*
D03*
Y1790D02*
D03*
X1361D02*
D03*
Y1740D02*
D03*
D17*
X1403Y1660D02*
D03*
X1360D02*
D03*
X563Y1345D02*
D03*
X607D02*
D03*
X717Y1060D02*
D03*
X673D02*
D03*
D18*
X1500Y1677D02*
D03*
X1537D02*
D03*
X1575D02*
D03*
Y1775D02*
D03*
X1500D02*
D03*
D19*
X1636Y1860D02*
D03*
X1574D02*
D03*
D20*
X1640Y1782D02*
D03*
Y1738D02*
D03*
X1435Y1787D02*
D03*
Y1743D02*
D03*
D21*
X1493Y1855D02*
D03*
X1437D02*
D03*
D22*
X459Y1275D02*
D03*
Y1225D02*
D03*
Y1175D02*
D03*
Y1125D02*
D03*
X671D02*
D03*
Y1175D02*
D03*
Y1275D02*
D03*
D23*
X164Y1775D02*
D03*
Y1575D02*
D03*
X506D02*
D03*
Y1775D02*
D03*
D24*
X745Y1482D02*
D03*
X925D02*
D03*
D25*
X835Y1740D02*
D03*
D26*
X805Y1209D02*
D03*
Y1271D02*
D03*
D27*
X1805Y1285D02*
D03*
D28*
X1400Y1385D02*
D03*
Y1185D02*
D03*
D29*
X335Y337D02*
D03*
Y613D02*
D03*
D30*
X1000Y1292D02*
D03*
Y1118D02*
D03*
D31*
X418Y995D02*
D03*
X482D02*
D03*
D32*
X200Y1046D02*
D03*
Y1014D02*
D03*
D33*
X279Y1065D02*
D03*
X311D02*
D03*
X256Y1145D02*
D03*
X224D02*
D03*
D34*
X840Y1072D02*
D03*
Y998D02*
D03*
D61*
X1830Y1310D02*
Y1760D01*
X1805Y1285D02*
X1830Y1310D01*
X1400Y1090D02*
Y1185D01*
Y1385D01*
Y1090D02*
X1690Y800D01*
D62*
X2135Y1205D02*
D03*
X2285D02*
D03*
Y865D02*
D03*
X2135D02*
D03*
D63*
X990Y225D02*
D03*
D64*
X1090Y325D02*
D03*
X990Y425D02*
D03*
X1090Y525D02*
D03*
X990Y625D02*
D03*
X1090Y725D02*
D03*
X990Y825D02*
D03*
X1090Y925D02*
D03*
X1690Y950D02*
D03*
Y800D02*
D03*
Y650D02*
D03*
Y500D02*
D03*
Y350D02*
D03*
Y200D02*
D03*
D65*
X1830Y1760D02*
D03*
D66*
X2027D02*
D03*
D67*
X585Y750D02*
D03*
X635Y1563D02*
D03*
D68*
X585Y553D02*
D03*
X635Y1760D02*
D03*
D69*
X210Y128D02*
D03*
D70*
Y915D02*
D03*
D71*
X405Y845D02*
D03*
X248Y998D02*
D03*
X1680Y1610D02*
D03*
X1460Y1585D02*
D03*
X315Y1260D02*
D03*
X180Y1350D02*
D03*
X935Y1365D02*
D03*
X814Y1150D02*
D03*
X825Y1370D02*
D03*
X680Y1465D02*
D03*
X670Y660D02*
D03*
X1005Y1590D02*
D03*
X1110Y1655D02*
D03*
X1055Y1510D02*
D03*
M02*
